<svg width="647" height="50" viewBox="0 0 647 50" fill="none" xmlns="http://www.w3.org/2000/svg">
<path d="M15.2236 10.0101L21.8292 27.7718M21.8292 27.7718L21.3517 45.1869M21.8292 27.7718L0.659546 41.2014M21.8292 27.7718L42.4418 28.9848M21.8292 27.7718L33.2895 0.47937M21.8292 27.7718L50.1615 41.9812M21.8292 27.7718L10.6077 46.3999M21.8292 27.7718L1.69415 11.2231M21.8292 27.7718L41.1684 14.9487M21.8292 27.7718L4.40005 26.2989M21.8292 27.7718L33.2895 48.4794" stroke="#8F8FFF" stroke-width="2.4"/>
<mask id="path-2-outside-1_2202_126" maskUnits="userSpaceOnUse" x="84.5739" y="7.47937" width="135" height="34" fill="black">
<rect fill="white" x="84.5739" y="7.47937" width="135" height="34"/>
<path d="M86.0139 20.1594C86.1739 17.8394 86.9339 15.8394 88.2939 14.1594C89.6539 12.4527 91.4539 11.146 93.6939 10.2394C95.9605 9.30604 98.5205 8.83937 101.374 8.83937C104.094 8.83937 106.467 9.2527 108.494 10.0794C110.521 10.906 112.107 12.066 113.254 13.5594C114.401 15.0527 114.974 16.7727 114.974 18.7194C114.974 20.2394 114.574 21.6527 113.774 22.9594C112.974 24.2394 111.707 25.5194 109.974 26.7994C108.241 28.0794 105.961 29.4394 103.134 30.8794L94.4539 35.4394L94.0539 33.4794H115.814V39.4794H86.5339V34.1994L99.4139 26.7994C101.467 25.626 103.067 24.626 104.214 23.7994C105.387 22.946 106.214 22.1594 106.694 21.4394C107.174 20.7194 107.414 19.946 107.414 19.1194C107.414 18.266 107.174 17.506 106.694 16.8394C106.241 16.1727 105.547 15.6527 104.614 15.2794C103.681 14.906 102.507 14.7194 101.094 14.7194C99.4139 14.7194 98.0272 14.9727 96.9339 15.4794C95.8405 15.9594 95.0272 16.6127 94.4939 17.4394C93.9605 18.266 93.6405 19.1727 93.5339 20.1594H86.0139ZM135.864 40.1194C132.477 40.1194 129.544 39.466 127.064 38.1594C124.584 36.8527 122.664 35.0394 121.304 32.7194C119.944 30.3727 119.264 27.626 119.264 24.4794C119.264 21.3594 119.944 18.626 121.304 16.2794C122.664 13.9327 124.584 12.106 127.064 10.7994C129.544 9.4927 132.477 8.83937 135.864 8.83937C139.224 8.83937 142.144 9.4927 144.624 10.7994C147.104 12.106 149.024 13.9327 150.384 16.2794C151.744 18.5994 152.424 21.3327 152.424 24.4794C152.424 27.5994 151.744 30.3327 150.384 32.6794C149.024 35.026 147.104 36.8527 144.624 38.1594C142.144 39.466 139.224 40.1194 135.864 40.1194ZM135.864 33.9594C138.717 33.9594 140.93 33.1327 142.504 31.4794C144.104 29.826 144.904 27.4927 144.904 24.4794C144.904 21.466 144.104 19.1327 142.504 17.4794C140.93 15.826 138.717 14.9994 135.864 14.9994C133.01 14.9994 130.784 15.826 129.184 17.4794C127.584 19.1327 126.784 21.466 126.784 24.4794C126.784 27.4927 127.584 29.826 129.184 31.4794C130.784 33.1327 133.01 33.9594 135.864 33.9594ZM155.623 20.1594C155.783 17.8394 156.543 15.8394 157.903 14.1594C159.263 12.4527 161.063 11.146 163.303 10.2394C165.57 9.30604 168.13 8.83937 170.983 8.83937C173.703 8.83937 176.077 9.2527 178.103 10.0794C180.13 10.906 181.717 12.066 182.863 13.5594C184.01 15.0527 184.583 16.7727 184.583 18.7194C184.583 20.2394 184.183 21.6527 183.383 22.9594C182.583 24.2394 181.317 25.5194 179.583 26.7994C177.85 28.0794 175.57 29.4394 172.743 30.8794L164.063 35.4394L163.663 33.4794H185.423V39.4794H156.143V34.1994L169.023 26.7994C171.077 25.626 172.677 24.626 173.823 23.7994C174.997 22.946 175.823 22.1594 176.303 21.4394C176.783 20.7194 177.023 19.946 177.023 19.1194C177.023 18.266 176.783 17.506 176.303 16.8394C175.85 16.1727 175.157 15.6527 174.223 15.2794C173.29 14.906 172.117 14.7194 170.703 14.7194C169.023 14.7194 167.637 14.9727 166.543 15.4794C165.45 15.9594 164.637 16.6127 164.103 17.4394C163.57 18.266 163.25 19.1727 163.143 20.1594H155.623ZM189.113 19.0794C189.246 17.186 189.913 15.466 191.113 13.9194C192.313 12.3727 194.02 11.146 196.233 10.2394C198.473 9.30604 201.166 8.83937 204.313 8.83937C207.06 8.83937 209.433 9.19937 211.433 9.91937C213.46 10.6127 215.033 11.586 216.153 12.8394C217.273 14.066 217.833 15.5194 217.833 17.1994C217.833 18.5594 217.42 19.7994 216.593 20.9194C215.793 22.0127 214.526 22.8927 212.793 23.5594C211.06 24.1994 208.846 24.506 206.153 24.4794V23.6794C208.713 23.546 210.913 23.7327 212.753 24.2394C214.593 24.746 216.006 25.546 216.993 26.6394C217.98 27.7327 218.473 29.106 218.473 30.7594C218.473 32.5727 217.9 34.186 216.753 35.5994C215.606 36.986 213.926 38.0927 211.713 38.9194C209.526 39.7194 206.86 40.1194 203.713 40.1194C200.646 40.1194 197.966 39.6927 195.673 38.8394C193.406 37.9594 191.633 36.746 190.353 35.1994C189.1 33.626 188.42 31.786 188.313 29.6794H195.833C196.046 31.146 196.793 32.2794 198.073 33.0794C199.38 33.8527 201.26 34.2394 203.713 34.2394C206.033 34.2394 207.793 33.8927 208.993 33.1994C210.22 32.4794 210.833 31.4794 210.833 30.1994C210.833 29.4527 210.633 28.8394 210.233 28.3594C209.833 27.8527 209.153 27.466 208.193 27.1994C207.233 26.9327 205.9 26.7994 204.193 26.7994H198.993V21.6394H204.193C206.406 21.6394 207.966 21.3327 208.873 20.7194C209.78 20.0794 210.233 19.2527 210.233 18.2394C210.233 17.1194 209.7 16.2527 208.633 15.6394C207.593 15.026 206.02 14.7194 203.913 14.7194C201.726 14.7194 200.02 15.0927 198.793 15.8394C197.593 16.586 196.873 17.666 196.633 19.0794H189.113Z"/>
</mask>
<path d="M86.0139 20.1594L85.0162 20.0906L84.9425 21.1594H86.0139V20.1594ZM88.2939 14.1594L89.0711 14.7886L89.0759 14.7826L88.2939 14.1594ZM93.6939 10.2394L94.0691 11.1663L94.0746 11.164L93.6939 10.2394ZM108.494 10.0794L108.116 11.0053L108.494 10.0794ZM113.254 13.5594L112.461 14.1684V14.1684L113.254 13.5594ZM113.774 22.9594L114.622 23.4894L114.627 23.4815L113.774 22.9594ZM109.974 26.7994L110.568 27.6038L109.974 26.7994ZM103.134 30.8794L102.68 29.9883L102.669 29.9941L103.134 30.8794ZM94.4539 35.4394L93.474 35.6393L93.7403 36.9438L94.9189 36.3246L94.4539 35.4394ZM94.0539 33.4794V32.4794H92.8292L93.074 33.6793L94.0539 33.4794ZM115.814 33.4794H116.814V32.4794H115.814V33.4794ZM115.814 39.4794V40.4794H116.814V39.4794H115.814ZM86.5339 39.4794H85.5339V40.4794H86.5339V39.4794ZM86.5339 34.1994L86.0357 33.3323L85.5339 33.6206V34.1994H86.5339ZM99.4139 26.7994L98.9177 25.9311L98.9157 25.9323L99.4139 26.7994ZM104.214 23.7994L104.799 24.6106L104.802 24.6081L104.214 23.7994ZM106.694 21.4394L105.862 20.8847L106.694 21.4394ZM106.694 16.8394L105.867 17.4017L105.874 17.4128L105.882 17.4237L106.694 16.8394ZM104.614 15.2794L104.985 14.3509L104.614 15.2794ZM96.9339 15.4794L97.3358 16.395L97.3451 16.3909L97.3543 16.3867L96.9339 15.4794ZM94.4939 17.4394L95.3341 17.9815L94.4939 17.4394ZM93.5339 20.1594V21.1594H94.4316L94.5281 20.2669L93.5339 20.1594ZM87.0115 20.2282C87.1585 18.0968 87.8504 16.2965 89.0711 14.7886L87.5166 13.5302C86.0173 15.3822 85.1892 17.582 85.0162 20.0906L87.0115 20.2282ZM89.0759 14.7826C90.3175 13.2245 91.971 12.0155 94.069 11.1663L93.3187 9.31242C90.9367 10.2766 88.9902 11.6809 87.5118 13.5362L89.0759 14.7826ZM94.0746 11.164C96.2024 10.2879 98.63 9.83937 101.374 9.83937V7.83937C98.411 7.83937 95.7187 8.32416 93.3131 9.31469L94.0746 11.164ZM101.374 9.83937C103.995 9.83937 106.235 10.2378 108.116 11.0053L108.872 9.15343C106.7 8.26756 104.193 7.83937 101.374 7.83937V9.83937ZM108.116 11.0053C110.006 11.776 111.438 12.8371 112.461 14.1684L114.047 12.9503C112.776 11.295 111.035 10.036 108.872 9.15343L108.116 11.0053ZM112.461 14.1684C113.468 15.4808 113.974 16.9849 113.974 18.7194H115.974C115.974 16.5605 115.333 14.6246 114.047 12.9503L112.461 14.1684ZM113.974 18.7194C113.974 20.0535 113.626 21.2864 112.921 22.4372L114.627 23.4815C115.522 22.019 115.974 20.4252 115.974 18.7194H113.974ZM112.926 22.4294C112.214 23.5676 111.052 24.7602 109.38 25.9949L110.568 27.6038C112.363 26.2785 113.733 24.9112 114.622 23.4894L112.926 22.4294ZM109.38 25.9949C107.706 27.2309 105.478 28.5628 102.68 29.9883L103.588 31.7704C106.443 30.3159 108.775 28.9278 110.568 27.6038L109.38 25.9949ZM102.669 29.9941L93.9888 34.5541L94.9189 36.3246L103.599 31.7646L102.669 29.9941ZM95.4337 35.2394L95.0337 33.2794L93.074 33.6793L93.474 35.6393L95.4337 35.2394ZM94.0539 34.4794H115.814V32.4794H94.0539V34.4794ZM114.814 33.4794V39.4794H116.814V33.4794H114.814ZM115.814 38.4794H86.5339V40.4794H115.814V38.4794ZM87.5339 39.4794V34.1994H85.5339V39.4794H87.5339ZM87.032 35.0664L99.912 27.6664L98.9157 25.9323L86.0357 33.3323L87.032 35.0664ZM99.91 27.6676C101.977 26.4867 103.611 25.4669 104.799 24.6105L103.629 22.9882C102.523 23.7852 100.958 24.7653 98.9177 25.9311L99.91 27.6676ZM104.802 24.6081C106.015 23.7257 106.951 22.857 107.526 21.9941L105.862 20.8847C105.477 21.4618 104.759 22.1664 103.626 22.9906L104.802 24.6081ZM107.526 21.9941C108.11 21.1179 108.414 20.153 108.414 19.1194H106.414C106.414 19.7391 106.238 20.3208 105.862 20.8847L107.526 21.9941ZM108.414 19.1194C108.414 18.065 108.113 17.0988 107.505 16.2551L105.882 17.4237C106.235 17.9132 106.414 18.4671 106.414 19.1194H108.414ZM107.521 16.2771C106.931 15.4091 106.058 14.7799 104.985 14.3509L104.242 16.2078C105.037 16.5255 105.55 16.9363 105.867 17.4017L107.521 16.2771ZM104.985 14.3509C103.896 13.9153 102.587 13.7194 101.094 13.7194V15.7194C102.428 15.7194 103.465 15.8968 104.242 16.2078L104.985 14.3509ZM101.094 13.7194C99.3222 13.7194 97.7797 13.9852 96.5134 14.5721L97.3543 16.3867C98.2747 15.9602 99.5055 15.7194 101.094 15.7194V13.7194ZM96.5319 14.5637C95.2977 15.1055 94.3141 15.8735 93.6536 16.8972L95.3341 17.9815C95.7403 17.3519 96.3833 16.8132 97.3358 16.395L96.5319 14.5637ZM93.6536 16.8972C93.035 17.856 92.6629 18.9117 92.5396 20.0519L94.5281 20.2669C94.6181 19.4337 94.886 18.6761 95.3341 17.9815L93.6536 16.8972ZM93.5339 19.1594H86.0139V21.1594H93.5339V19.1594ZM127.064 38.1594L126.597 39.0441L127.064 38.1594ZM121.304 32.7194L120.438 33.2208L120.441 33.2251L121.304 32.7194ZM121.304 16.2794L120.438 15.7779L121.304 16.2794ZM127.064 10.7994L127.53 11.6841V11.6841L127.064 10.7994ZM144.624 10.7994L144.157 11.6841V11.6841L144.624 10.7994ZM150.384 16.2794L149.518 16.7808L149.521 16.7851L150.384 16.2794ZM150.384 32.6794L151.249 33.1808L150.384 32.6794ZM144.624 38.1594L145.09 39.0441L144.624 38.1594ZM142.504 31.4794L141.785 30.7839L141.779 30.79L142.504 31.4794ZM142.504 17.4794L141.779 18.1688L141.785 18.1748L142.504 17.4794ZM129.184 17.4794L129.902 18.1748L129.184 17.4794ZM129.184 31.4794L128.465 32.1748L129.184 31.4794ZM135.864 39.1194C132.606 39.1194 129.839 38.4914 127.53 37.2747L126.597 39.0441C129.248 40.4407 132.348 41.1194 135.864 41.1194V39.1194ZM127.53 37.2747C125.207 36.051 123.428 34.3658 122.166 32.2136L120.441 33.2251C121.899 35.7129 123.96 37.6544 126.597 39.0441L127.53 37.2747ZM122.169 32.2179C120.91 30.0466 120.264 27.4785 120.264 24.4794H118.264C118.264 27.7736 118.977 30.6988 120.438 33.2208L122.169 32.2179ZM120.264 24.4794C120.264 21.5086 120.91 18.9534 122.169 16.7808L120.438 15.7779C118.977 18.2986 118.264 21.2101 118.264 24.4794H120.264ZM122.169 16.7808C123.431 14.6025 125.21 12.9062 127.53 11.6841L126.597 9.91466C123.957 11.3059 121.896 13.2629 120.438 15.7779L122.169 16.7808ZM127.53 11.6841C129.839 10.4674 132.606 9.83937 135.864 9.83937V7.83937C132.348 7.83937 129.248 8.51805 126.597 9.91466L127.53 11.6841ZM135.864 9.83937C139.093 9.83937 141.847 10.4668 144.157 11.6841L145.09 9.91466C142.44 8.51862 139.354 7.83937 135.864 7.83937V9.83937ZM144.157 11.6841C146.477 12.9062 148.256 14.6025 149.518 16.7808L151.249 15.7779C149.791 13.2629 147.73 11.3059 145.09 9.91466L144.157 11.6841ZM149.521 16.7851C150.777 18.9273 151.424 21.4799 151.424 24.4794H153.424C153.424 21.1855 152.71 18.2714 151.246 15.7736L149.521 16.7851ZM151.424 24.4794C151.424 27.4501 150.777 30.0053 149.518 32.1779L151.249 33.1808C152.71 30.6601 153.424 27.7486 153.424 24.4794H151.424ZM149.518 32.1779C148.256 34.3562 146.477 36.0526 144.157 37.2747L145.09 39.0441C147.73 37.6528 149.791 35.6959 151.249 33.1808L149.518 32.1779ZM144.157 37.2747C141.847 38.4919 139.093 39.1194 135.864 39.1194V41.1194C139.354 41.1194 142.44 40.4401 145.09 39.0441L144.157 37.2747ZM135.864 34.9594C138.918 34.9594 141.421 34.0677 143.228 32.1687L141.779 30.79C140.44 32.1977 138.516 32.9594 135.864 32.9594V34.9594ZM143.222 32.1748C145.053 30.2827 145.904 27.6691 145.904 24.4794H143.904C143.904 27.3163 143.154 29.3694 141.785 30.7839L143.222 32.1748ZM145.904 24.4794C145.904 21.2896 145.053 18.676 143.222 16.7839L141.785 18.1748C143.154 19.5894 143.904 21.6424 143.904 24.4794H145.904ZM143.228 16.79C141.421 14.891 138.918 13.9994 135.864 13.9994V15.9994C138.516 15.9994 140.44 16.761 141.779 18.1687L143.228 16.79ZM135.864 13.9994C132.809 13.9994 130.297 14.8912 128.465 16.7839L129.902 18.1748C131.27 16.7608 133.212 15.9994 135.864 15.9994V13.9994ZM128.465 16.7839C126.634 18.676 125.784 21.2896 125.784 24.4794H127.784C127.784 21.6424 128.533 19.5894 129.902 18.1748L128.465 16.7839ZM125.784 24.4794C125.784 27.6691 126.634 30.2827 128.465 32.1748L129.902 30.7839C128.533 29.3694 127.784 27.3163 127.784 24.4794H125.784ZM128.465 32.1748C130.297 34.0675 132.809 34.9594 135.864 34.9594V32.9594C133.212 32.9594 131.27 32.1979 129.902 30.7839L128.465 32.1748ZM155.623 20.1594L154.626 20.0906L154.552 21.1594H155.623V20.1594ZM157.903 14.1594L158.68 14.7886L158.685 14.7826L157.903 14.1594ZM163.303 10.2394L163.678 11.1663L163.684 11.164L163.303 10.2394ZM178.103 10.0794L177.726 11.0053L178.103 10.0794ZM182.863 13.5594L182.07 14.1684V14.1684L182.863 13.5594ZM183.383 22.9594L184.231 23.4894L184.236 23.4815L183.383 22.9594ZM179.583 26.7994L180.177 27.6038L179.583 26.7994ZM172.743 30.8794L172.289 29.9883L172.278 29.9941L172.743 30.8794ZM164.063 35.4394L163.083 35.6393L163.35 36.9438L164.528 36.3246L164.063 35.4394ZM163.663 33.4794V32.4794H162.439L162.683 33.6793L163.663 33.4794ZM185.423 33.4794H186.423V32.4794H185.423V33.4794ZM185.423 39.4794V40.4794H186.423V39.4794H185.423ZM156.143 39.4794H155.143V40.4794H156.143V39.4794ZM156.143 34.1994L155.645 33.3323L155.143 33.6206V34.1994H156.143ZM169.023 26.7994L168.527 25.9311L168.525 25.9323L169.023 26.7994ZM173.823 23.7994L174.408 24.6106L174.411 24.6081L173.823 23.7994ZM176.303 21.4394L175.471 20.8847L176.303 21.4394ZM176.303 16.8394L175.476 17.4017L175.484 17.4128L175.492 17.4237L176.303 16.8394ZM174.223 15.2794L174.595 14.3509L174.223 15.2794ZM166.543 15.4794L166.945 16.395L166.954 16.3909L166.964 16.3867L166.543 15.4794ZM164.103 17.4394L164.944 17.9815L164.103 17.4394ZM163.143 20.1594V21.1594H164.041L164.137 20.2669L163.143 20.1594ZM156.621 20.2282C156.768 18.0968 157.46 16.2965 158.68 14.7886L157.126 13.5302C155.627 15.3822 154.799 17.582 154.626 20.0906L156.621 20.2282ZM158.685 14.7826C159.927 13.2245 161.58 12.0155 163.678 11.1663L162.928 9.31242C160.546 10.2766 158.6 11.6809 157.121 13.5362L158.685 14.7826ZM163.684 11.164C165.812 10.2879 168.239 9.83937 170.983 9.83937V7.83937C168.02 7.83937 165.328 8.32416 162.922 9.31469L163.684 11.164ZM170.983 9.83937C173.604 9.83937 175.844 10.2378 177.726 11.0053L178.481 9.15343C176.309 8.26756 173.802 7.83937 170.983 7.83937V9.83937ZM177.726 11.0053C179.615 11.776 181.048 12.8371 182.07 14.1684L183.656 12.9503C182.385 11.295 180.645 10.036 178.481 9.15343L177.726 11.0053ZM182.07 14.1684C183.078 15.4808 183.583 16.9849 183.583 18.7194H185.583C185.583 16.5605 184.942 14.6246 183.656 12.9503L182.07 14.1684ZM183.583 18.7194C183.583 20.0535 183.235 21.2864 182.53 22.4372L184.236 23.4815C185.131 22.019 185.583 20.4252 185.583 18.7194H183.583ZM182.535 22.4294C181.824 23.5676 180.661 24.7602 178.989 25.9949L180.177 27.6038C181.972 26.2785 183.343 24.9112 184.231 23.4894L182.535 22.4294ZM178.989 25.9949C177.315 27.2309 175.088 28.5628 172.289 29.9883L173.197 31.7704C176.052 30.3159 178.384 28.9278 180.177 27.6038L178.989 25.9949ZM172.278 29.9941L163.598 34.5541L164.528 36.3246L173.208 31.7646L172.278 29.9941ZM165.043 35.2394L164.643 33.2794L162.683 33.6793L163.083 35.6393L165.043 35.2394ZM163.663 34.4794H185.423V32.4794H163.663V34.4794ZM184.423 33.4794V39.4794H186.423V33.4794H184.423ZM185.423 38.4794H156.143V40.4794H185.423V38.4794ZM157.143 39.4794V34.1994H155.143V39.4794H157.143ZM156.641 35.0664L169.521 27.6664L168.525 25.9323L155.645 33.3323L156.641 35.0664ZM169.519 27.6676C171.586 26.4867 173.22 25.4669 174.408 24.6105L173.238 22.9882C172.133 23.7852 170.567 24.7653 168.527 25.9311L169.519 27.6676ZM174.411 24.6081C175.625 23.7257 176.56 22.857 177.135 21.9941L175.471 20.8847C175.086 21.4618 174.368 22.1664 173.235 22.9906L174.411 24.6081ZM177.135 21.9941C177.719 21.1179 178.023 20.153 178.023 19.1194H176.023C176.023 19.7391 175.847 20.3208 175.471 20.8847L177.135 21.9941ZM178.023 19.1194C178.023 18.065 177.722 17.0988 177.115 16.2551L175.492 17.4237C175.844 17.9132 176.023 18.4671 176.023 19.1194H178.023ZM177.13 16.2771C176.54 15.4091 175.667 14.7799 174.595 14.3509L173.852 16.2078C174.646 16.5255 175.16 16.9363 175.476 17.4017L177.13 16.2771ZM174.595 14.3509C173.506 13.9153 172.196 13.7194 170.703 13.7194V15.7194C172.037 15.7194 173.074 15.8968 173.852 16.2078L174.595 14.3509ZM170.703 13.7194C168.932 13.7194 167.389 13.9852 166.123 14.5721L166.964 16.3867C167.884 15.9602 169.115 15.7194 170.703 15.7194V13.7194ZM166.141 14.5637C164.907 15.1055 163.923 15.8735 163.263 16.8972L164.944 17.9815C165.35 17.3519 165.993 16.8132 166.945 16.395L166.141 14.5637ZM163.263 16.8972C162.644 17.856 162.272 18.9117 162.149 20.0519L164.137 20.2669C164.228 19.4337 164.495 18.6761 164.944 17.9815L163.263 16.8972ZM163.143 19.1594H155.623V21.1594H163.143V19.1594ZM189.113 19.0794L188.115 19.0091L188.04 20.0794H189.113V19.0794ZM191.113 13.9194L190.323 13.3064L191.113 13.9194ZM196.233 10.2394L196.612 11.1648L196.618 11.1624L196.233 10.2394ZM211.433 9.91937L211.094 10.8603L211.102 10.863L211.109 10.8655L211.433 9.91937ZM216.153 12.8394L215.407 13.5057L215.414 13.5136L216.153 12.8394ZM216.593 20.9194L215.788 20.3255L215.786 20.3289L216.593 20.9194ZM212.793 23.5594L213.139 24.4975L213.152 24.4927L212.793 23.5594ZM206.153 24.4794H205.153V25.4695L206.143 25.4793L206.153 24.4794ZM206.153 23.6794L206.101 22.6807L205.153 22.7301V23.6794H206.153ZM216.753 35.5994L217.524 36.2367L217.529 36.2294L216.753 35.5994ZM211.713 38.9194L212.056 39.8585L212.063 39.8562L211.713 38.9194ZM195.673 38.8394L195.311 39.7717L195.324 39.7766L195.673 38.8394ZM190.353 35.1994L189.571 35.8224L189.577 35.8297L189.583 35.8369L190.353 35.1994ZM188.313 29.6794V28.6794H187.261L187.314 29.7299L188.313 29.6794ZM195.833 29.6794L196.822 29.5354L196.698 28.6794H195.833V29.6794ZM198.073 33.0794L197.543 33.9274L197.553 33.9338L197.564 33.9399L198.073 33.0794ZM208.993 33.1994L209.493 34.0653L209.499 34.0618L208.993 33.1994ZM210.233 28.3594L209.448 28.979L209.456 28.9894L209.465 28.9996L210.233 28.3594ZM208.193 27.1994L207.925 28.1629L208.193 27.1994ZM198.993 26.7994H197.993V27.7994H198.993V26.7994ZM198.993 21.6394V20.6394H197.993V21.6394H198.993ZM208.873 20.7194L209.433 21.5477L209.441 21.5421L209.45 21.5363L208.873 20.7194ZM208.633 15.6394L208.125 16.5008L208.134 16.5063L208.633 15.6394ZM198.793 15.8394L198.273 14.9851L198.265 14.9903L198.793 15.8394ZM196.633 19.0794V20.0794H197.477L197.619 19.2468L196.633 19.0794ZM190.11 19.1496C190.229 17.4602 190.82 15.9278 191.903 14.5324L190.323 13.3064C189.006 15.0042 188.263 16.9119 188.115 19.0091L190.11 19.1496ZM191.903 14.5324C192.974 13.1516 194.525 12.0197 196.612 11.1647L195.854 9.314C193.514 10.2724 191.652 11.5938 190.323 13.3064L191.903 14.5324ZM196.618 11.1624C198.705 10.2925 201.261 9.83937 204.313 9.83937V7.83937C201.072 7.83937 198.24 8.31954 195.848 9.31629L196.618 11.1624ZM204.313 9.83937C206.976 9.83937 209.229 10.1889 211.094 10.8603L211.772 8.97848C209.636 8.20982 207.143 7.83937 204.313 7.83937V9.83937ZM211.109 10.8655C213.017 11.5183 214.429 12.4108 215.407 13.5057L216.899 12.173C215.637 10.7613 213.902 9.70715 211.757 8.97321L211.109 10.8655ZM215.414 13.5136C216.364 14.5537 216.833 15.7657 216.833 17.1994H218.833C218.833 15.273 218.182 13.5783 216.891 12.1651L215.414 13.5136ZM216.833 17.1994C216.833 18.3403 216.491 19.3731 215.788 20.3255L217.397 21.5132C218.348 20.2256 218.833 18.7785 218.833 17.1994H216.833ZM215.786 20.3289C215.134 21.2198 214.052 22.0036 212.434 22.626L213.152 24.4927C215 23.7818 216.452 22.8056 217.4 21.5099L215.786 20.3289ZM212.447 22.6213C210.867 23.2046 208.785 23.5054 206.163 23.4794L206.143 25.4793C208.907 25.5067 211.252 25.1941 213.139 24.4975L212.447 22.6213ZM207.153 24.4794V23.6794H205.153V24.4794H207.153ZM206.205 24.678C208.692 24.5485 210.779 24.7331 212.487 25.2035L213.018 23.2753C211.047 22.7323 208.734 22.5436 206.101 22.6807L206.205 24.678ZM212.487 25.2035C214.197 25.6743 215.424 26.3938 216.251 27.3093L217.735 25.9694C216.588 24.6983 214.989 23.8178 213.018 23.2753L212.487 25.2035ZM216.251 27.3093C217.051 28.196 217.473 29.3209 217.473 30.7594H219.473C219.473 28.8912 218.908 27.2694 217.735 25.9694L216.251 27.3093ZM217.473 30.7594C217.473 32.3424 216.979 33.7334 215.976 34.9693L217.529 36.2294C218.82 34.6386 219.473 32.803 219.473 30.7594H217.473ZM215.982 34.9621C214.977 36.178 213.462 37.1985 211.363 37.9826L212.063 39.8562C214.39 38.9869 216.236 37.7941 217.524 36.2366L215.982 34.9621ZM211.369 37.9802C209.324 38.7286 206.781 39.1194 203.713 39.1194V41.1194C206.938 41.1194 209.729 40.7102 212.056 39.8585L211.369 37.9802ZM203.713 39.1194C200.736 39.1194 198.179 38.7049 196.022 37.9021L195.324 39.7766C197.753 40.6805 200.556 41.1194 203.713 41.1194V39.1194ZM196.035 37.9072C193.894 37.0759 192.274 35.9519 191.123 34.5618L189.583 35.8369C190.992 37.5402 192.919 38.8428 195.311 39.7716L196.035 37.9072ZM191.135 34.5763C190.019 33.1747 189.408 31.5375 189.312 29.6288L187.314 29.7299C187.431 32.0346 188.181 34.0773 189.571 35.8224L191.135 34.5763ZM188.313 30.6794H195.833V28.6794H188.313V30.6794ZM194.843 29.8233C195.1 31.5869 196.019 32.9749 197.543 33.9274L198.603 32.2314C197.567 31.5838 196.993 30.7052 196.822 29.5354L194.843 29.8233ZM197.564 33.9399C199.092 34.8445 201.18 35.2394 203.713 35.2394V33.2394C201.339 33.2394 199.667 32.8609 198.582 32.2188L197.564 33.9399ZM203.713 35.2394C206.104 35.2394 208.071 34.8871 209.493 34.0652L208.493 32.3335C207.515 32.8983 205.962 33.2394 203.713 33.2394V35.2394ZM209.499 34.0618C210.991 33.1863 211.833 31.8792 211.833 30.1994H209.833C209.833 31.0796 209.448 31.7724 208.487 32.337L209.499 34.0618ZM211.833 30.1994C211.833 29.2664 211.579 28.4124 211.001 27.7192L209.465 28.9996C209.687 29.2664 209.833 29.639 209.833 30.1994H211.833ZM211.018 27.7397C210.432 26.9979 209.521 26.5304 208.461 26.2358L207.925 28.1629C208.785 28.4017 209.234 28.7075 209.448 28.979L211.018 27.7397ZM208.461 26.2358C207.373 25.9338 205.936 25.7994 204.193 25.7994V27.7994C205.864 27.7994 207.093 27.9316 207.925 28.1629L208.461 26.2358ZM204.193 25.7994H198.993V27.7994H204.193V25.7994ZM199.993 26.7994V21.6394H197.993V26.7994H199.993ZM198.993 22.6394H204.193V20.6394H198.993V22.6394ZM204.193 22.6394C206.438 22.6394 208.262 22.3399 209.433 21.5477L208.313 19.8911C207.67 20.3255 206.375 20.6394 204.193 20.6394V22.6394ZM209.45 21.5363C210.592 20.7298 211.233 19.6122 211.233 18.2394H209.233C209.233 18.8932 208.967 19.4289 208.296 19.9024L209.45 21.5363ZM211.233 18.2394C211.233 16.7206 210.471 15.5428 209.131 14.7725L208.134 16.5063C208.928 16.9626 209.233 17.5181 209.233 18.2394H211.233ZM209.141 14.778C207.871 14.0291 206.082 13.7194 203.913 13.7194V15.7194C205.957 15.7194 207.315 16.023 208.125 16.5007L209.141 14.778ZM203.913 13.7194C201.631 13.7194 199.718 14.1057 198.273 14.9852L199.313 16.6936C200.321 16.0797 201.821 15.7194 203.913 15.7194V13.7194ZM198.265 14.9903C196.818 15.8907 195.934 17.221 195.647 18.912L197.619 19.2468C197.812 18.1111 198.368 17.2814 199.321 16.6884L198.265 14.9903ZM196.633 18.0794H189.113V20.0794H196.633V18.0794Z" fill="#FFEB1C" mask="url(#path-2-outside-1_2202_126)"/>
<mask id="path-4-outside-2_2202_126" maskUnits="userSpaceOnUse" x="244.574" y="7.47937" width="364" height="34" fill="black">
<rect fill="white" x="244.574" y="7.47937" width="364" height="34"/>
<path d="M267.294 24.7594L267.934 23.2794C270.281 23.3327 272.201 23.6927 273.694 24.3594C275.214 25.026 276.334 25.946 277.054 27.1194C277.801 28.266 278.174 29.5994 278.174 31.1194C278.174 32.7194 277.801 34.1594 277.054 35.4394C276.307 36.6927 275.187 37.6794 273.694 38.3994C272.227 39.1194 270.387 39.4794 268.174 39.4794H246.574L248.894 24.0794L246.574 9.47937H267.414C270.187 9.47937 272.334 10.1327 273.854 11.4394C275.401 12.7194 276.174 14.4927 276.174 16.7594C276.174 18.0127 275.881 19.2127 275.294 20.3594C274.707 21.506 273.774 22.4794 272.494 23.2794C271.214 24.0527 269.481 24.546 267.294 24.7594ZM254.014 37.6394L251.134 34.0794H266.374C267.681 34.0794 268.694 33.7727 269.414 33.1594C270.161 32.5194 270.534 31.626 270.534 30.4794C270.534 29.3327 270.121 28.426 269.294 27.7594C268.494 27.066 267.294 26.7194 265.694 26.7194H253.214V21.4394H264.734C265.827 21.4394 266.734 21.1327 267.454 20.5194C268.174 19.8794 268.534 19.0127 268.534 17.9194C268.534 17.0394 268.227 16.3194 267.614 15.7594C267.001 15.1727 266.107 14.8794 264.934 14.8794H251.174L254.014 11.3194L256.134 24.0794L254.014 37.6394ZM290.015 9.47937V36.1194L286.615 32.7994H309.095V39.4794H282.455V9.47937H290.015ZM318.128 33.4394V27.3594H338.848V33.4394H318.128ZM333.568 9.47937L347.408 39.4794H339.368L327.488 12.6394H329.808L317.968 39.4794H309.928L323.768 9.47937H333.568ZM381.625 27.0794C381.331 29.666 380.438 31.946 378.945 33.9194C377.451 35.866 375.478 37.386 373.025 38.4794C370.571 39.5727 367.771 40.1194 364.625 40.1194C361.185 40.1194 358.158 39.466 355.545 38.1594C352.958 36.8527 350.945 35.026 349.505 32.6794C348.065 30.3327 347.345 27.5994 347.345 24.4794C347.345 21.3594 348.065 18.626 349.505 16.2794C350.945 13.9327 352.958 12.106 355.545 10.7994C358.158 9.4927 361.185 8.83937 364.625 8.83937C367.771 8.83937 370.571 9.38604 373.025 10.4794C375.478 11.5727 377.451 13.0927 378.945 15.0394C380.438 16.986 381.331 19.266 381.625 21.8794H374.025C373.758 20.5194 373.211 19.3594 372.385 18.3994C371.585 17.4394 370.518 16.706 369.185 16.1994C367.878 15.666 366.358 15.3994 364.625 15.3994C362.625 15.3994 360.905 15.7727 359.465 16.5194C358.025 17.2394 356.918 18.2794 356.145 19.6394C355.371 20.9994 354.985 22.6127 354.985 24.4794C354.985 26.346 355.371 27.9594 356.145 29.3194C356.918 30.6794 358.025 31.7327 359.465 32.4794C360.905 33.1994 362.625 33.5594 364.625 33.5594C366.358 33.5594 367.878 33.306 369.185 32.7994C370.518 32.2927 371.585 31.5594 372.385 30.5994C373.211 29.6394 373.758 28.466 374.025 27.0794H381.625ZM385.853 39.4794V9.47937H393.373V33.4394L391.333 31.8794L409.093 9.47937H417.093L392.653 39.4794H385.853ZM400.213 24.9594L405.653 20.2794L417.493 39.4794H408.933L400.213 24.9594ZM433.322 21.9594H455.042V28.3994H433.322V21.9594ZM455.762 9.47937V15.9194H433.482L437.202 12.1994V39.4794H429.642V9.47937H455.762ZM465.39 22.6794H476.63C478.043 22.6794 479.163 22.3594 479.99 21.7194C480.817 21.0527 481.23 20.1327 481.23 18.9594C481.23 17.786 480.817 16.8794 479.99 16.2394C479.163 15.5727 478.043 15.2394 476.63 15.2394H464.31L467.71 11.5194V39.4794H460.15V9.47937H477.63C479.87 9.47937 481.83 9.87937 483.51 10.6794C485.19 11.4794 486.497 12.586 487.43 13.9994C488.363 15.4127 488.83 17.066 488.83 18.9594C488.83 20.826 488.363 22.466 487.43 23.8794C486.497 25.2927 485.19 26.3994 483.51 27.1994C481.83 27.9727 479.87 28.3594 477.63 28.3594H465.39V22.6794ZM470.23 25.4394H478.75L489.79 39.4794H481.03L470.23 25.4394ZM493.744 9.47937H501.304V39.4794H493.744V9.47937ZM521.782 9.47937C525.302 9.47937 528.382 10.106 531.022 11.3594C533.662 12.6127 535.716 14.3594 537.182 16.5994C538.676 18.8394 539.422 21.466 539.422 24.4794C539.422 27.466 538.676 30.0927 537.182 32.3594C535.716 34.5994 533.662 36.346 531.022 37.5994C528.382 38.8527 525.302 39.4794 521.782 39.4794H507.142V9.47937H521.782ZM514.662 36.3994L510.982 32.7994H522.342C524.262 32.7994 525.929 32.4527 527.342 31.7594C528.756 31.066 529.849 30.106 530.622 28.8794C531.396 27.626 531.782 26.1594 531.782 24.4794C531.782 22.7727 531.396 21.306 530.622 20.0794C529.849 18.8527 528.756 17.8927 527.342 17.1994C525.929 16.506 524.262 16.1594 522.342 16.1594H510.982L514.662 12.5594V36.3994ZM547.425 33.4394V27.3594H568.145V33.4394H547.425ZM562.865 9.47937L576.705 39.4794H568.665L556.785 12.6394H559.105L547.265 39.4794H539.225L553.065 9.47937H562.865ZM584.951 39.4794V24.9594H592.511V39.4794H584.951ZM570.871 9.47937H579.231L590.431 23.7194H586.951L598.151 9.47937H606.511L591.151 28.9994L586.271 29.0794L570.871 9.47937Z"/>
</mask>
<path d="M267.294 24.7594L266.376 24.3625L265.703 25.9193L267.391 25.7546L267.294 24.7594ZM267.934 23.2794L267.957 22.2796L267.283 22.2643L267.016 22.8825L267.934 23.2794ZM273.694 24.3594L273.286 25.2725L273.292 25.2752L273.694 24.3594ZM277.054 27.1194L276.202 27.6424L276.209 27.6538L276.216 27.665L277.054 27.1194ZM277.054 35.4394L277.913 35.9512L277.918 35.9432L277.054 35.4394ZM273.694 38.3994L273.26 37.4986L273.253 37.5017L273.694 38.3994ZM246.574 39.4794L245.585 39.3304L245.412 40.4794H246.574V39.4794ZM248.894 24.0794L249.883 24.2283L249.906 24.0753L249.881 23.9224L248.894 24.0794ZM246.574 9.47937V8.47937H245.402L245.586 9.6363L246.574 9.47937ZM273.854 11.4394L273.202 12.1977L273.209 12.2038L273.216 12.2098L273.854 11.4394ZM275.294 20.3594L274.404 19.9039L275.294 20.3594ZM272.494 23.2794L273.011 24.1353L273.017 24.1314L273.024 24.1274L272.494 23.2794ZM254.014 37.6394L253.236 38.2683L254.654 40.0203L255.002 37.7938L254.014 37.6394ZM251.134 34.0794V33.0794H249.039L250.356 34.7083L251.134 34.0794ZM269.414 33.1594L270.062 33.9206L270.065 33.9186L269.414 33.1594ZM269.294 27.7594L268.639 28.5151L268.652 28.5267L268.666 28.5378L269.294 27.7594ZM253.214 26.7194H252.214V27.7194H253.214V26.7194ZM253.214 21.4394V20.4394H252.214V21.4394H253.214ZM267.454 20.5194L268.102 21.2806L268.11 21.2738L268.118 21.2668L267.454 20.5194ZM267.614 15.7594L266.923 16.482L266.931 16.49L266.94 16.4979L267.614 15.7594ZM251.174 14.8794L250.392 14.2557L249.097 15.8794H251.174V14.8794ZM254.014 11.3194L255 11.1555L254.632 8.94055L253.232 10.6957L254.014 11.3194ZM256.134 24.0794L257.122 24.2338L257.147 24.0745L257.12 23.9155L256.134 24.0794ZM268.212 25.1563L268.852 23.6763L267.016 22.8825L266.376 24.3625L268.212 25.1563ZM267.911 24.2791C270.178 24.3306 271.955 24.6781 273.286 25.2725L274.102 23.4462C272.446 22.7073 270.383 22.3348 267.957 22.2796L267.911 24.2791ZM273.292 25.2752C274.665 25.8771 275.609 26.676 276.202 27.6424L277.906 26.5964C277.059 25.2161 275.763 24.175 274.096 23.4436L273.292 25.2752ZM276.216 27.665C276.845 28.6317 277.174 29.7709 277.174 31.1194H279.174C279.174 29.4279 278.756 27.9004 277.892 26.5737L276.216 27.665ZM277.174 31.1194C277.174 32.5569 276.84 33.8206 276.19 34.9355L277.918 35.9432C278.761 34.4982 279.174 32.8818 279.174 31.1194H277.174ZM276.195 34.9276C275.562 35.9902 274.601 36.8518 273.26 37.4986L274.128 39.3001C275.773 38.5069 277.053 37.3952 277.913 35.9512L276.195 34.9276ZM273.253 37.5017C271.963 38.1349 270.286 38.4794 268.174 38.4794V40.4794C270.489 40.4794 272.491 40.1039 274.135 39.297L273.253 37.5017ZM268.174 38.4794H246.574V40.4794H268.174V38.4794ZM247.563 39.6283L249.883 24.2283L247.905 23.9304L245.585 39.3304L247.563 39.6283ZM249.881 23.9224L247.561 9.32243L245.586 9.6363L247.906 24.2363L249.881 23.9224ZM246.574 10.4794H267.414V8.47937H246.574V10.4794ZM267.414 10.4794C270.039 10.4794 271.922 11.0977 273.202 12.1977L274.506 10.6811C272.745 9.16768 270.335 8.47937 267.414 8.47937V10.4794ZM273.216 12.2098C274.502 13.2738 275.174 14.7474 275.174 16.7594H277.174C277.174 14.238 276.299 12.1649 274.491 10.669L273.216 12.2098ZM275.174 16.7594C275.174 17.8498 274.92 18.8942 274.404 19.9039L276.184 20.8148C276.841 19.5312 277.174 18.1756 277.174 16.7594H275.174ZM274.404 19.9039C273.913 20.8637 273.117 21.7106 271.964 22.4314L273.024 24.1274C274.431 23.2482 275.502 22.1484 276.184 20.8148L274.404 19.9039ZM271.977 22.4235C270.87 23.092 269.299 23.559 267.197 23.7641L267.391 25.7546C269.662 25.5331 271.558 25.0134 273.011 24.1353L271.977 22.4235ZM254.791 37.0104L251.911 33.4504L250.356 34.7083L253.236 38.2683L254.791 37.0104ZM251.134 35.0794H266.374V33.0794H251.134V35.0794ZM266.374 35.0794C267.828 35.0794 269.103 34.738 270.062 33.9206L268.765 32.3981C268.285 32.8074 267.533 33.0794 266.374 33.0794V35.0794ZM270.065 33.9186C271.071 33.0563 271.534 31.8643 271.534 30.4794H269.534C269.534 31.3878 269.25 31.9825 268.763 32.4001L270.065 33.9186ZM271.534 30.4794C271.534 29.0579 271.004 27.8541 269.922 26.981L268.666 28.5378C269.237 28.9979 269.534 29.6075 269.534 30.4794H271.534ZM269.949 27.0037C268.894 26.0894 267.416 25.7194 265.694 25.7194V27.7194C267.172 27.7194 268.094 28.0427 268.639 28.5151L269.949 27.0037ZM265.694 25.7194H253.214V27.7194H265.694V25.7194ZM254.214 26.7194V21.4394H252.214V26.7194H254.214ZM253.214 22.4394H264.734V20.4394H253.214V22.4394ZM264.734 22.4394C266.026 22.4394 267.174 22.0717 268.102 21.2806L266.805 19.7581C266.294 20.1937 265.629 20.4394 264.734 20.4394V22.4394ZM268.118 21.2668C269.082 20.4103 269.534 19.2556 269.534 17.9194H267.534C267.534 18.7698 267.266 19.3484 266.789 19.772L268.118 21.2668ZM269.534 17.9194C269.534 16.7772 269.122 15.7827 268.288 15.0209L266.94 16.4979C267.332 16.856 267.534 17.3015 267.534 17.9194H269.534ZM268.305 15.0367C267.444 14.2133 266.265 13.8794 264.934 13.8794V15.8794C265.949 15.8794 266.557 16.1321 266.923 16.482L268.305 15.0367ZM264.934 13.8794H251.174V15.8794H264.934V13.8794ZM251.956 15.503L254.796 11.943L253.232 10.6957L250.392 14.2557L251.956 15.503ZM253.027 11.4833L255.147 24.2433L257.12 23.9155L255 11.1555L253.027 11.4833ZM255.146 23.9249L253.026 37.4849L255.002 37.7938L257.122 24.2338L255.146 23.9249ZM290.015 9.47937H291.015V8.47937H290.015V9.47937ZM290.015 36.1194L289.316 36.8348L291.015 38.4935V36.1194H290.015ZM286.615 32.7994V31.7994H284.159L285.916 33.5148L286.615 32.7994ZM309.095 32.7994H310.095V31.7994H309.095V32.7994ZM309.095 39.4794V40.4794H310.095V39.4794H309.095ZM282.455 39.4794H281.455V40.4794H282.455V39.4794ZM282.455 9.47937V8.47937H281.455V9.47937H282.455ZM289.015 9.47937V36.1194H291.015V9.47937H289.015ZM290.713 35.4039L287.313 32.0839L285.916 33.5148L289.316 36.8348L290.713 35.4039ZM286.615 33.7994H309.095V31.7994H286.615V33.7994ZM308.095 32.7994V39.4794H310.095V32.7994H308.095ZM309.095 38.4794H282.455V40.4794H309.095V38.4794ZM283.455 39.4794V9.47937H281.455V39.4794H283.455ZM282.455 10.4794H290.015V8.47937H282.455V10.4794ZM318.128 33.4394H317.128V34.4394H318.128V33.4394ZM318.128 27.3594V26.3594H317.128V27.3594H318.128ZM338.848 27.3594H339.848V26.3594H338.848V27.3594ZM338.848 33.4394V34.4394H339.848V33.4394H338.848ZM333.568 9.47937L334.476 9.06046L334.208 8.47937H333.568V9.47937ZM347.408 39.4794V40.4794H348.971L348.316 39.0605L347.408 39.4794ZM339.368 39.4794L338.454 39.8841L338.717 40.4794H339.368V39.4794ZM327.488 12.6394V11.6394H325.952L326.574 13.0441L327.488 12.6394ZM329.808 12.6394L330.723 13.043L331.342 11.6394H329.808V12.6394ZM317.968 39.4794V40.4794H318.62L318.883 39.883L317.968 39.4794ZM309.928 39.4794L309.02 39.0605L308.366 40.4794H309.928V39.4794ZM323.768 9.47937V8.47937H323.128L322.86 9.06046L323.768 9.47937ZM319.128 33.4394V27.3594H317.128V33.4394H319.128ZM318.128 28.3594H338.848V26.3594H318.128V28.3594ZM337.848 27.3594V33.4394H339.848V27.3594H337.848ZM338.848 32.4394H318.128V34.4394H338.848V32.4394ZM332.66 9.89827L346.5 39.8983L348.316 39.0605L334.476 9.06046L332.66 9.89827ZM347.408 38.4794H339.368V40.4794H347.408V38.4794ZM340.283 39.0746L328.403 12.2346L326.574 13.0441L338.454 39.8841L340.283 39.0746ZM327.488 13.6394H329.808V11.6394H327.488V13.6394ZM328.893 12.2358L317.053 39.0758L318.883 39.883L330.723 13.043L328.893 12.2358ZM317.968 38.4794H309.928V40.4794H317.968V38.4794ZM310.836 39.8983L324.676 9.89827L322.86 9.06046L309.02 39.0605L310.836 39.8983ZM323.768 10.4794H333.568V8.47937H323.768V10.4794ZM381.625 27.0794L382.618 27.192L382.745 26.0794H381.625V27.0794ZM378.945 33.9194L379.738 34.528L379.742 34.5228L378.945 33.9194ZM373.025 38.4794L372.618 37.566L373.025 38.4794ZM355.545 38.1594L355.094 39.052L355.098 39.0538L355.545 38.1594ZM349.505 32.6794L348.652 33.2024L349.505 32.6794ZM349.505 16.2794L348.652 15.7564L349.505 16.2794ZM355.545 10.7994L355.098 9.90493L355.094 9.90679L355.545 10.7994ZM378.945 15.0394L378.151 15.648V15.648L378.945 15.0394ZM381.625 21.8794V22.8794H382.743L382.619 21.7678L381.625 21.8794ZM374.025 21.8794L373.043 22.0718L373.202 22.8794H374.025V21.8794ZM372.385 18.3994L371.617 19.0396L371.622 19.0458L371.627 19.0519L372.385 18.3994ZM369.185 16.1994L368.807 17.1252L368.818 17.1298L368.83 17.1342L369.185 16.1994ZM359.465 16.5194L359.912 17.4138L359.919 17.4105L359.925 17.4071L359.465 16.5194ZM356.145 19.6394L357.014 20.1337L356.145 19.6394ZM356.145 29.3194L355.275 29.8137V29.8137L356.145 29.3194ZM359.465 32.4794L359.004 33.3671L359.011 33.3705L359.018 33.3738L359.465 32.4794ZM369.185 32.7994L368.83 31.8646L368.823 31.867L369.185 32.7994ZM372.385 30.5994L371.627 29.9468L371.622 29.953L371.617 29.9592L372.385 30.5994ZM374.025 27.0794V26.0794H373.199L373.043 26.8905L374.025 27.0794ZM380.631 26.9667C380.357 29.3848 379.527 31.4932 378.147 33.3159L379.742 34.5228C381.349 32.3989 382.306 29.9473 382.618 27.192L380.631 26.9667ZM378.151 33.3107C376.769 35.113 374.934 36.5339 372.618 37.566L373.432 39.3928C376.023 38.2382 378.134 36.6191 379.738 34.528L378.151 33.3107ZM372.618 37.566C370.313 38.5933 367.655 39.1194 364.625 39.1194V41.1194C367.888 41.1194 370.83 40.5522 373.432 39.3928L372.618 37.566ZM364.625 39.1194C361.313 39.1194 358.444 38.4909 355.992 37.2649L355.098 39.0538C357.872 40.4412 361.057 41.1194 364.625 41.1194V39.1194ZM355.996 37.2668C353.565 36.0391 351.695 34.3365 350.357 32.1564L348.652 33.2024C350.195 35.7155 352.351 37.6663 355.094 39.0519L355.996 37.2668ZM350.357 32.1564C349.026 29.9872 348.345 27.4399 348.345 24.4794H346.345C346.345 27.7588 347.104 30.6782 348.652 33.2024L350.357 32.1564ZM348.345 24.4794C348.345 21.5188 349.026 18.9715 350.357 16.8024L348.652 15.7564C347.104 18.2805 346.345 21.1999 346.345 24.4794H348.345ZM350.357 16.8024C351.695 14.6222 353.565 12.9196 355.996 11.6919L355.094 9.90679C352.351 11.2925 350.195 13.2432 348.652 15.7564L350.357 16.8024ZM355.992 11.6938C358.444 10.4679 361.313 9.83937 364.625 9.83937V7.83937C361.057 7.83937 357.872 8.51755 355.098 9.90494L355.992 11.6938ZM364.625 9.83937C367.655 9.83937 370.313 10.3655 372.618 11.3928L373.432 9.56597C370.83 8.40658 367.888 7.83937 364.625 7.83937V9.83937ZM372.618 11.3928C374.934 12.4249 376.769 13.8458 378.151 15.648L379.738 14.4307C378.134 12.3396 376.023 10.7205 373.432 9.56597L372.618 11.3928ZM378.151 15.648C379.526 17.4399 380.356 19.5449 380.631 21.9909L382.619 21.7678C382.306 18.9871 381.35 16.5322 379.738 14.4307L378.151 15.648ZM381.625 20.8794H374.025V22.8794H381.625V20.8794ZM375.006 21.687C374.709 20.1732 374.093 18.8504 373.143 17.7468L371.627 19.0519C372.33 19.8684 372.807 20.8655 373.043 22.0718L375.006 21.687ZM373.153 17.7592C372.228 16.6494 371.011 15.8236 369.54 15.2646L368.83 17.1342C370.025 17.5885 370.941 18.2293 371.617 19.0396L373.153 17.7592ZM369.563 15.2735C368.112 14.6814 366.459 14.3994 364.625 14.3994V16.3994C366.257 16.3994 367.644 16.6506 368.807 17.1252L369.563 15.2735ZM364.625 14.3994C362.501 14.3994 360.616 14.796 359.004 15.6316L359.925 17.4071C361.193 16.7494 362.748 16.3994 364.625 16.3994V14.3994ZM359.018 15.6249C357.406 16.4308 356.15 17.6076 355.275 19.1451L357.014 20.1337C357.686 18.9512 358.644 18.0479 359.912 17.4138L359.018 15.6249ZM355.275 19.1451C354.401 20.6824 353.985 22.4729 353.985 24.4794H355.985C355.985 22.7525 356.342 21.3163 357.014 20.1337L355.275 19.1451ZM353.985 24.4794C353.985 26.4858 354.401 28.2763 355.275 29.8137L357.014 28.8251C356.342 27.6424 355.985 26.2062 355.985 24.4794H353.985ZM355.275 29.8137C356.148 31.348 357.4 32.535 359.004 33.3671L359.925 31.5916C358.65 30.9304 357.688 30.0108 357.014 28.8251L355.275 29.8137ZM359.018 33.3738C360.626 34.178 362.506 34.5594 364.625 34.5594V32.5594C362.743 32.5594 361.184 32.2207 359.912 31.5849L359.018 33.3738ZM364.625 34.5594C366.453 34.5594 368.101 34.2923 369.546 33.7317L368.823 31.867C367.656 32.3198 366.263 32.5594 364.625 32.5594V34.5594ZM369.54 33.7342C371.011 33.1752 372.228 32.3493 373.153 31.2396L371.617 29.9592C370.941 30.7694 370.025 31.4102 368.83 31.8646L369.54 33.7342ZM373.143 31.2519C374.096 30.1449 374.711 28.8063 375.007 27.2682L373.043 26.8905C372.805 28.1258 372.327 29.1339 371.627 29.9468L373.143 31.2519ZM374.025 28.0794H381.625V26.0794H374.025V28.0794ZM385.853 39.4794H384.853V40.4794H385.853V39.4794ZM385.853 9.47937V8.47937H384.853V9.47937H385.853ZM393.373 9.47937H394.373V8.47937H393.373V9.47937ZM393.373 33.4394L392.766 34.2337L394.373 35.463V33.4394H393.373ZM391.333 31.8794L390.55 31.2581L389.917 32.0555L390.726 32.6737L391.333 31.8794ZM409.093 9.47937V8.47937H408.61L408.31 8.85809L409.093 9.47937ZM417.093 9.47937L417.869 10.111L419.198 8.47937H417.093V9.47937ZM392.653 39.4794V40.4794H393.128L393.429 40.111L392.653 39.4794ZM400.213 24.9594L399.561 24.2013L398.922 24.7513L399.356 25.4742L400.213 24.9594ZM405.653 20.2794L406.504 19.7545L405.889 18.7571L405.001 19.5213L405.653 20.2794ZM417.493 39.4794V40.4794H419.285L418.344 38.9545L417.493 39.4794ZM408.933 39.4794L408.076 39.9942L408.367 40.4794H408.933V39.4794ZM386.853 39.4794V9.47937H384.853V39.4794H386.853ZM385.853 10.4794H393.373V8.47937H385.853V10.4794ZM392.373 9.47937V33.4394H394.373V9.47937H392.373ZM393.981 32.645L391.941 31.085L390.726 32.6737L392.766 34.2337L393.981 32.645ZM392.117 32.5006L409.877 10.1006L408.31 8.85809L390.55 31.2581L392.117 32.5006ZM409.093 10.4794H417.093V8.47937H409.093V10.4794ZM416.318 8.84776L391.878 38.8478L393.429 40.111L417.869 10.111L416.318 8.84776ZM392.653 38.4794H385.853V40.4794H392.653V38.4794ZM400.865 25.7174L406.305 21.0374L405.001 19.5213L399.561 24.2013L400.865 25.7174ZM404.802 20.8043L416.642 40.0043L418.344 38.9545L406.504 19.7545L404.802 20.8043ZM417.493 38.4794H408.933V40.4794H417.493V38.4794ZM409.791 38.9645L401.071 24.4445L399.356 25.4742L408.076 39.9942L409.791 38.9645ZM433.322 21.9594V20.9594H432.322V21.9594H433.322ZM455.042 21.9594H456.042V20.9594H455.042V21.9594ZM455.042 28.3994V29.3994H456.042V28.3994H455.042ZM433.322 28.3994H432.322V29.3994H433.322V28.3994ZM455.762 9.47937H456.762V8.47937H455.762V9.47937ZM455.762 15.9194V16.9194H456.762V15.9194H455.762ZM433.482 15.9194L432.775 15.2123L431.068 16.9194H433.482V15.9194ZM437.202 12.1994H438.202V9.78515L436.495 11.4923L437.202 12.1994ZM437.202 39.4794V40.4794H438.202V39.4794H437.202ZM429.642 39.4794H428.642V40.4794H429.642V39.4794ZM429.642 9.47937V8.47937H428.642V9.47937H429.642ZM433.322 22.9594H455.042V20.9594H433.322V22.9594ZM454.042 21.9594V28.3994H456.042V21.9594H454.042ZM455.042 27.3994H433.322V29.3994H455.042V27.3994ZM434.322 28.3994V21.9594H432.322V28.3994H434.322ZM454.762 9.47937V15.9194H456.762V9.47937H454.762ZM455.762 14.9194H433.482V16.9194H455.762V14.9194ZM434.189 16.6265L437.909 12.9065L436.495 11.4923L432.775 15.2123L434.189 16.6265ZM436.202 12.1994V39.4794H438.202V12.1994H436.202ZM437.202 38.4794H429.642V40.4794H437.202V38.4794ZM430.642 39.4794V9.47937H428.642V39.4794H430.642ZM429.642 10.4794H455.762V8.47937H429.642V10.4794ZM465.39 22.6794V21.6794H464.39V22.6794H465.39ZM479.99 21.7194L480.602 22.5101L480.61 22.504L480.618 22.4978L479.99 21.7194ZM479.99 16.2394L479.362 17.0178L479.37 17.024L479.378 17.0301L479.99 16.2394ZM464.31 15.2394L463.572 14.5647L462.041 16.2394H464.31V15.2394ZM467.71 11.5194H468.71V8.94299L466.972 10.8447L467.71 11.5194ZM467.71 39.4794V40.4794H468.71V39.4794H467.71ZM460.15 39.4794H459.15V40.4794H460.15V39.4794ZM460.15 9.47937V8.47937H459.15V9.47937H460.15ZM483.51 10.6794L483.08 11.5822L483.51 10.6794ZM487.43 13.9994L488.265 13.4483L487.43 13.9994ZM487.43 23.8794L488.265 24.4304L487.43 23.8794ZM483.51 27.1994L483.928 28.1078L483.94 28.1022L483.51 27.1994ZM465.39 28.3594H464.39V29.3594H465.39V28.3594ZM470.23 25.4394V24.4394H468.199L469.437 26.0491L470.23 25.4394ZM478.75 25.4394L479.536 24.8212L479.236 24.4394H478.75V25.4394ZM489.79 39.4794V40.4794H491.849L490.576 38.8612L489.79 39.4794ZM481.03 39.4794L480.237 40.0891L480.538 40.4794H481.03V39.4794ZM465.39 23.6794H476.63V21.6794H465.39V23.6794ZM476.63 23.6794C478.188 23.6794 479.548 23.3265 480.602 22.5101L479.378 20.9286C478.779 21.3922 477.899 21.6794 476.63 21.6794V23.6794ZM480.618 22.4978C481.707 21.6197 482.23 20.399 482.23 18.9594H480.23C480.23 19.8664 479.927 20.4857 479.362 20.941L480.618 22.4978ZM482.23 18.9594C482.23 17.5198 481.706 16.303 480.602 15.4486L479.378 17.0301C479.928 17.4558 480.23 18.0522 480.23 18.9594H482.23ZM480.618 15.461C479.562 14.6096 478.196 14.2394 476.63 14.2394V16.2394C477.891 16.2394 478.765 16.5358 479.362 17.0178L480.618 15.461ZM476.63 14.2394H464.31V16.2394H476.63V14.2394ZM465.048 15.914L468.448 12.194L466.972 10.8447L463.572 14.5647L465.048 15.914ZM466.71 11.5194V39.4794H468.71V11.5194H466.71ZM467.71 38.4794H460.15V40.4794H467.71V38.4794ZM461.15 39.4794V9.47937H459.15V39.4794H461.15ZM460.15 10.4794H477.63V8.47937H460.15V10.4794ZM477.63 10.4794C479.751 10.4794 481.559 10.8579 483.08 11.5822L483.94 9.77651C482.101 8.90084 479.989 8.47937 477.63 8.47937V10.4794ZM483.08 11.5822C484.613 12.3119 485.772 13.3037 486.596 14.5504L488.265 13.4483C487.221 11.8683 485.768 10.6468 483.94 9.77651L483.08 11.5822ZM486.596 14.5504C487.409 15.7814 487.83 17.2381 487.83 18.9594H489.83C489.83 16.894 489.318 15.044 488.265 13.4483L486.596 14.5504ZM487.83 18.9594C487.83 20.6509 487.41 22.095 486.596 23.3283L488.265 24.4304C489.317 22.8371 489.83 21.0012 489.83 18.9594H487.83ZM486.596 23.3283C485.772 24.575 484.613 25.5668 483.08 26.2965L483.94 28.1022C485.768 27.2319 487.221 26.0104 488.265 24.4304L486.596 23.3283ZM483.092 26.291C481.568 26.9926 479.756 27.3594 477.63 27.3594V29.3594C479.985 29.3594 482.092 28.9528 483.928 28.1077L483.092 26.291ZM477.63 27.3594H465.39V29.3594H477.63V27.3594ZM466.39 28.3594V22.6794H464.39V28.3594H466.39ZM470.23 26.4394H478.75V24.4394H470.23V26.4394ZM477.964 26.0575L489.004 40.0975L490.576 38.8612L479.536 24.8212L477.964 26.0575ZM489.79 38.4794H481.03V40.4794H489.79V38.4794ZM481.823 38.8697L471.023 24.8297L469.437 26.0491L480.237 40.0891L481.823 38.8697ZM493.744 9.47937V8.47937H492.744V9.47937H493.744ZM501.304 9.47937H502.304V8.47937H501.304V9.47937ZM501.304 39.4794V40.4794H502.304V39.4794H501.304ZM493.744 39.4794H492.744V40.4794H493.744V39.4794ZM493.744 10.4794H501.304V8.47937H493.744V10.4794ZM500.304 9.47937V39.4794H502.304V9.47937H500.304ZM501.304 38.4794H493.744V40.4794H501.304V38.4794ZM494.744 39.4794V9.47937H492.744V39.4794H494.744ZM531.022 11.3594L530.593 12.2627L531.022 11.3594ZM537.182 16.5994L536.346 17.1472L536.35 17.1541L537.182 16.5994ZM537.182 32.3594L536.347 31.8092L536.346 31.8116L537.182 32.3594ZM531.022 37.5994L530.593 36.696L531.022 37.5994ZM507.142 39.4794H506.142V40.4794H507.142V39.4794ZM507.142 9.47937V8.47937H506.142V9.47937H507.142ZM514.662 36.3994L513.963 37.1142L515.662 38.7766V36.3994H514.662ZM510.982 32.7994V31.7994H508.53L510.283 33.5142L510.982 32.7994ZM527.342 31.7594L526.902 30.8616L527.342 31.7594ZM530.622 28.8794L531.468 29.4127L531.473 29.4045L530.622 28.8794ZM530.622 20.0794L529.776 20.6127L530.622 20.0794ZM527.342 17.1994L527.783 16.3016V16.3016L527.342 17.1994ZM510.982 16.1594L510.283 15.4445L508.53 17.1594H510.982V16.1594ZM514.662 12.5594H515.662V10.1822L513.963 11.8445L514.662 12.5594ZM521.782 10.4794C525.184 10.4794 528.112 11.0847 530.593 12.2627L531.451 10.456C528.653 9.12736 525.421 8.47937 521.782 8.47937V10.4794ZM530.593 12.2627C533.083 13.4447 534.989 15.0748 536.346 17.1472L538.019 16.0516C536.442 13.6439 534.241 11.7807 531.451 10.456L530.593 12.2627ZM536.35 17.1541C537.721 19.2106 538.422 21.6391 538.422 24.4794H540.422C540.422 21.293 539.63 18.4681 538.014 16.0447L536.35 17.1541ZM538.422 24.4794C538.422 27.2909 537.722 29.7221 536.347 31.8092L538.017 32.9095C539.629 30.4633 540.422 27.6412 540.422 24.4794H538.422ZM536.346 31.8116C534.989 33.8839 533.083 35.514 530.593 36.696L531.451 38.5027C534.241 37.178 536.442 35.3148 538.019 32.9072L536.346 31.8116ZM530.593 36.696C528.112 37.874 525.184 38.4794 521.782 38.4794V40.4794C525.421 40.4794 528.653 39.8314 531.451 38.5027L530.593 36.696ZM521.782 38.4794H507.142V40.4794H521.782V38.4794ZM508.142 39.4794V9.47937H506.142V39.4794H508.142ZM507.142 10.4794H521.782V8.47937H507.142V10.4794ZM515.362 35.6845L511.682 32.0845L510.283 33.5142L513.963 37.1142L515.362 35.6845ZM510.982 33.7994H522.342V31.7994H510.982V33.7994ZM522.342 33.7994C524.382 33.7994 526.205 33.4309 527.783 32.6572L526.902 30.8616C525.652 31.4745 524.143 31.7994 522.342 31.7994V33.7994ZM527.783 32.6572C529.348 31.8895 530.588 30.8094 531.468 29.4127L529.776 28.3461C529.11 29.4027 528.164 30.2426 526.902 30.8616L527.783 32.6572ZM531.473 29.4045C532.357 27.972 532.782 26.3181 532.782 24.4794H530.782C530.782 26.0006 530.434 27.28 529.771 28.3543L531.473 29.4045ZM532.782 24.4794C532.782 22.6179 532.359 20.9588 531.468 19.5461L529.776 20.6127C530.432 21.6532 530.782 22.9275 530.782 24.4794H532.782ZM531.468 19.5461C530.588 18.1493 529.348 17.0693 527.783 16.3016L526.902 18.0972C528.164 18.7161 529.11 19.5561 529.776 20.6127L531.468 19.5461ZM527.783 16.3016C526.205 15.5278 524.382 15.1594 522.342 15.1594V17.1594C524.143 17.1594 525.652 17.4842 526.902 18.0972L527.783 16.3016ZM522.342 15.1594H510.982V17.1594H522.342V15.1594ZM511.682 16.8742L515.362 13.2742L513.963 11.8445L510.283 15.4445L511.682 16.8742ZM513.662 12.5594V36.3994H515.662V12.5594H513.662ZM547.425 33.4394H546.425V34.4394H547.425V33.4394ZM547.425 27.3594V26.3594H546.425V27.3594H547.425ZM568.145 27.3594H569.145V26.3594H568.145V27.3594ZM568.145 33.4394V34.4394H569.145V33.4394H568.145ZM562.865 9.47937L563.773 9.06046L563.505 8.47937H562.865V9.47937ZM576.705 39.4794V40.4794H578.268L577.613 39.0605L576.705 39.4794ZM568.665 39.4794L567.751 39.8841L568.014 40.4794H568.665V39.4794ZM556.785 12.6394V11.6394H555.249L555.871 13.0441L556.785 12.6394ZM559.105 12.6394L560.02 13.043L560.639 11.6394H559.105V12.6394ZM547.265 39.4794V40.4794H547.917L548.18 39.883L547.265 39.4794ZM539.225 39.4794L538.317 39.0605L537.662 40.4794H539.225V39.4794ZM553.065 9.47937V8.47937H552.425L552.157 9.06046L553.065 9.47937ZM548.425 33.4394V27.3594H546.425V33.4394H548.425ZM547.425 28.3594H568.145V26.3594H547.425V28.3594ZM567.145 27.3594V33.4394H569.145V27.3594H567.145ZM568.145 32.4394H547.425V34.4394H568.145V32.4394ZM561.957 9.89827L575.797 39.8983L577.613 39.0605L563.773 9.06046L561.957 9.89827ZM576.705 38.4794H568.665V40.4794H576.705V38.4794ZM569.58 39.0746L557.7 12.2346L555.871 13.0441L567.751 39.8841L569.58 39.0746ZM556.785 13.6394H559.105V11.6394H556.785V13.6394ZM558.19 12.2358L546.35 39.0758L548.18 39.883L560.02 13.043L558.19 12.2358ZM547.265 38.4794H539.225V40.4794H547.265V38.4794ZM540.133 39.8983L553.973 9.89827L552.157 9.06046L538.317 39.0605L540.133 39.8983ZM553.065 10.4794H562.865V8.47937H553.065V10.4794ZM584.951 39.4794H583.951V40.4794H584.951V39.4794ZM584.951 24.9594V23.9594H583.951V24.9594H584.951ZM592.511 24.9594H593.511V23.9594H592.511V24.9594ZM592.511 39.4794V40.4794H593.511V39.4794H592.511ZM570.871 9.47937V8.47937H568.814L570.085 10.0972L570.871 9.47937ZM579.231 9.47937L580.017 8.86116L579.717 8.47937H579.231V9.47937ZM590.431 23.7194V24.7194H592.49L591.217 23.1012L590.431 23.7194ZM586.951 23.7194L586.165 23.1012L584.893 24.7194H586.951V23.7194ZM598.151 9.47937V8.47937H597.666L597.365 8.86116L598.151 9.47937ZM606.511 9.47937L607.297 10.0978L608.571 8.47937H606.511V9.47937ZM591.151 28.9994L591.168 29.9992L591.643 29.9914L591.937 29.6178L591.151 28.9994ZM586.271 29.0794L585.485 29.6972L585.792 30.0874L586.288 30.0792L586.271 29.0794ZM585.951 39.4794V24.9594H583.951V39.4794H585.951ZM584.951 25.9594H592.511V23.9594H584.951V25.9594ZM591.511 24.9594V39.4794H593.511V24.9594H591.511ZM592.511 38.4794H584.951V40.4794H592.511V38.4794ZM570.871 10.4794H579.231V8.47937H570.871V10.4794ZM578.445 10.0976L589.645 24.3376L591.217 23.1012L580.017 8.86116L578.445 10.0976ZM590.431 22.7194H586.951V24.7194H590.431V22.7194ZM587.737 24.3376L598.937 10.0976L597.365 8.86116L586.165 23.1012L587.737 24.3376ZM598.151 10.4794H606.511V8.47937H598.151V10.4794ZM605.725 8.86098L590.365 28.381L591.937 29.6178L607.297 10.0978L605.725 8.86098ZM591.135 27.9995L586.255 28.0795L586.288 30.0792L591.168 29.9992L591.135 27.9995ZM587.058 28.4615L571.658 8.86155L570.085 10.0972L585.485 29.6972L587.058 28.4615Z" fill="#FFEB1C" mask="url(#path-4-outside-2_2202_126)"/>
</svg>
