<svg width="646" height="50" viewBox="0 0 646 50" fill="none" xmlns="http://www.w3.org/2000/svg">
<path d="M15.4055 10.1886L21.9987 27.9504M21.9987 27.9504L21.5221 45.3655M21.9987 27.9504L0.868652 41.38M21.9987 27.9504L42.5727 29.1634M21.9987 27.9504L33.4375 0.657959M21.9987 27.9504L50.278 42.1598M21.9987 27.9504L10.7982 46.5785M21.9987 27.9504L1.90132 11.4016M21.9987 27.9504L41.3017 15.1273M21.9987 27.9504L4.60216 26.4775M21.9987 27.9504L33.4375 48.658" stroke="#FE64FA" stroke-width="2.4"/>
<mask id="path-2-outside-1_2202_125" maskUnits="userSpaceOnUse" x="84.6259" y="7.65784" width="135" height="34" fill="black">
<rect fill="white" x="84.6259" y="7.65784" width="135" height="34"/>
<path d="M86.0659 20.3378C86.2259 18.0178 86.9859 16.0178 88.3459 14.3378C89.7059 12.6312 91.5059 11.3245 93.7459 10.4178C96.0126 9.4845 98.5726 9.01784 101.426 9.01784C104.146 9.01784 106.519 9.43117 108.546 10.2578C110.573 11.0845 112.159 12.2445 113.306 13.7378C114.453 15.2312 115.026 16.9512 115.026 18.8978C115.026 20.4178 114.626 21.8312 113.826 23.1378C113.026 24.4178 111.759 25.6978 110.026 26.9778C108.293 28.2578 106.013 29.6178 103.186 31.0578L94.5059 35.6178L94.1059 33.6578H115.866V39.6578H86.5859V34.3778L99.4659 26.9778C101.519 25.8045 103.119 24.8045 104.266 23.9778C105.439 23.1245 106.266 22.3378 106.746 21.6178C107.226 20.8978 107.466 20.1245 107.466 19.2978C107.466 18.4445 107.226 17.6845 106.746 17.0178C106.293 16.3512 105.599 15.8312 104.666 15.4578C103.733 15.0845 102.559 14.8978 101.146 14.8978C99.4659 14.8978 98.0792 15.1512 96.9859 15.6578C95.8926 16.1378 95.0792 16.7912 94.5459 17.6178C94.0126 18.4445 93.6926 19.3512 93.5859 20.3378H86.0659ZM135.916 40.2978C132.529 40.2978 129.596 39.6445 127.116 38.3378C124.636 37.0312 122.716 35.2178 121.356 32.8978C119.996 30.5512 119.316 27.8045 119.316 24.6578C119.316 21.5378 119.996 18.8045 121.356 16.4578C122.716 14.1112 124.636 12.2845 127.116 10.9778C129.596 9.67117 132.529 9.01784 135.916 9.01784C139.276 9.01784 142.196 9.67117 144.676 10.9778C147.156 12.2845 149.076 14.1112 150.436 16.4578C151.796 18.7778 152.476 21.5112 152.476 24.6578C152.476 27.7778 151.796 30.5112 150.436 32.8578C149.076 35.2045 147.156 37.0312 144.676 38.3378C142.196 39.6445 139.276 40.2978 135.916 40.2978ZM135.916 34.1378C138.769 34.1378 140.982 33.3112 142.556 31.6578C144.156 30.0045 144.956 27.6712 144.956 24.6578C144.956 21.6445 144.156 19.3112 142.556 17.6578C140.982 16.0045 138.769 15.1778 135.916 15.1778C133.062 15.1778 130.836 16.0045 129.236 17.6578C127.636 19.3112 126.836 21.6445 126.836 24.6578C126.836 27.6712 127.636 30.0045 129.236 31.6578C130.836 33.3112 133.062 34.1378 135.916 34.1378ZM155.675 20.3378C155.835 18.0178 156.595 16.0178 157.955 14.3378C159.315 12.6312 161.115 11.3245 163.355 10.4178C165.622 9.4845 168.182 9.01784 171.035 9.01784C173.755 9.01784 176.129 9.43117 178.155 10.2578C180.182 11.0845 181.769 12.2445 182.915 13.7378C184.062 15.2312 184.635 16.9512 184.635 18.8978C184.635 20.4178 184.235 21.8312 183.435 23.1378C182.635 24.4178 181.369 25.6978 179.635 26.9778C177.902 28.2578 175.622 29.6178 172.795 31.0578L164.115 35.6178L163.715 33.6578H185.475V39.6578H156.195V34.3778L169.075 26.9778C171.129 25.8045 172.729 24.8045 173.875 23.9778C175.049 23.1245 175.875 22.3378 176.355 21.6178C176.835 20.8978 177.075 20.1245 177.075 19.2978C177.075 18.4445 176.835 17.6845 176.355 17.0178C175.902 16.3512 175.209 15.8312 174.275 15.4578C173.342 15.0845 172.169 14.8978 170.755 14.8978C169.075 14.8978 167.689 15.1512 166.595 15.6578C165.502 16.1378 164.689 16.7912 164.155 17.6178C163.622 18.4445 163.302 19.3512 163.195 20.3378H155.675ZM189.165 19.2578C189.298 17.3645 189.965 15.6445 191.165 14.0978C192.365 12.5512 194.072 11.3245 196.285 10.4178C198.525 9.4845 201.218 9.01784 204.365 9.01784C207.112 9.01784 209.485 9.37784 211.485 10.0978C213.512 10.7912 215.085 11.7645 216.205 13.0178C217.325 14.2445 217.885 15.6978 217.885 17.3778C217.885 18.7378 217.472 19.9778 216.645 21.0978C215.845 22.1912 214.578 23.0712 212.845 23.7378C211.112 24.3778 208.898 24.6845 206.205 24.6578V23.8578C208.765 23.7245 210.965 23.9112 212.805 24.4178C214.645 24.9245 216.058 25.7245 217.045 26.8178C218.032 27.9112 218.525 29.2845 218.525 30.9378C218.525 32.7512 217.952 34.3645 216.805 35.7778C215.658 37.1645 213.978 38.2712 211.765 39.0978C209.578 39.8978 206.912 40.2978 203.765 40.2978C200.698 40.2978 198.018 39.8712 195.725 39.0178C193.458 38.1378 191.685 36.9245 190.405 35.3778C189.152 33.8045 188.472 31.9645 188.365 29.8578H195.885C196.098 31.3245 196.845 32.4578 198.125 33.2578C199.432 34.0312 201.312 34.4178 203.765 34.4178C206.085 34.4178 207.845 34.0712 209.045 33.3778C210.272 32.6578 210.885 31.6578 210.885 30.3778C210.885 29.6312 210.685 29.0178 210.285 28.5378C209.885 28.0312 209.205 27.6445 208.245 27.3778C207.285 27.1112 205.952 26.9778 204.245 26.9778H199.045V21.8178H204.245C206.458 21.8178 208.018 21.5112 208.925 20.8978C209.832 20.2578 210.285 19.4312 210.285 18.4178C210.285 17.2978 209.752 16.4312 208.685 15.8178C207.645 15.2045 206.072 14.8978 203.965 14.8978C201.778 14.8978 200.072 15.2712 198.845 16.0178C197.645 16.7645 196.925 17.8445 196.685 19.2578H189.165Z"/>
</mask>
<path d="M86.0659 20.3378L85.0683 20.269L84.9946 21.3378H86.0659V20.3378ZM88.3459 14.3378L89.1232 14.9671L89.128 14.961L88.3459 14.3378ZM93.7459 10.4178L94.1211 11.3448L94.1267 11.3425L93.7459 10.4178ZM108.546 10.2578L108.168 11.1838L108.546 10.2578ZM113.306 13.7378L112.513 14.3469V14.3469L113.306 13.7378ZM113.826 23.1378L114.674 23.6679L114.679 23.66L113.826 23.1378ZM110.026 26.9778L110.62 27.7823L110.026 26.9778ZM103.186 31.0578L102.732 30.1667L102.721 30.1726L103.186 31.0578ZM94.5059 35.6178L93.5261 35.8178L93.7923 37.1223L94.971 36.5031L94.5059 35.6178ZM94.1059 33.6578V32.6578H92.8812L93.1261 33.8578L94.1059 33.6578ZM115.866 33.6578H116.866V32.6578H115.866V33.6578ZM115.866 39.6578V40.6578H116.866V39.6578H115.866ZM86.5859 39.6578H85.5859V40.6578H86.5859V39.6578ZM86.5859 34.3778L86.0877 33.5108L85.5859 33.7991V34.3778H86.5859ZM99.4659 26.9778L98.9698 26.1096L98.9677 26.1108L99.4659 26.9778ZM104.266 23.9778L104.851 24.789L104.854 24.7866L104.266 23.9778ZM106.746 21.6178L105.914 21.0631L106.746 21.6178ZM106.746 17.0178L105.919 17.5801L105.927 17.5912L105.934 17.6021L106.746 17.0178ZM104.666 15.4578L105.037 14.5294L104.666 15.4578ZM96.9859 15.6578L97.3879 16.5735L97.3972 16.5694L97.4064 16.5651L96.9859 15.6578ZM94.5459 17.6178L95.3862 18.16L94.5459 17.6178ZM93.5859 20.3378V21.3378H94.4836L94.5801 20.4453L93.5859 20.3378ZM87.0635 20.4066C87.2105 18.2752 87.9024 16.475 89.1232 14.967L87.5687 13.7086C86.0694 15.5607 85.2413 17.7604 85.0683 20.269L87.0635 20.4066ZM89.128 14.961C90.3696 13.403 92.0231 12.194 94.1211 11.3448L93.3707 9.49089C90.9887 10.455 89.0423 11.8594 87.5639 13.7146L89.128 14.961ZM94.1267 11.3425C96.2544 10.4664 98.6821 10.0178 101.426 10.0178V8.01784C98.4631 8.01784 95.7707 8.50263 93.3652 9.49316L94.1267 11.3425ZM101.426 10.0178C104.047 10.0178 106.287 10.4163 108.168 11.1838L108.924 9.3319C106.752 8.44602 104.245 8.01784 101.426 8.01784V10.0178ZM108.168 11.1838C110.058 11.9545 111.491 13.0156 112.513 14.3469L114.099 13.1288C112.828 11.4734 111.087 10.2145 108.924 9.3319L108.168 11.1838ZM112.513 14.3469C113.52 15.6592 114.026 17.1634 114.026 18.8978H116.026C116.026 16.739 115.385 14.8031 114.099 13.1288L112.513 14.3469ZM114.026 18.8978C114.026 20.232 113.678 21.4649 112.973 22.6157L114.679 23.66C115.574 22.1975 116.026 20.6037 116.026 18.8978H114.026ZM112.978 22.6078C112.267 23.746 111.104 24.9387 109.432 26.1734L110.62 27.7823C112.415 26.457 113.785 25.0896 114.674 23.6678L112.978 22.6078ZM109.432 26.1734C107.758 27.4094 105.53 28.7413 102.732 30.1668L103.64 31.9489C106.495 30.4944 108.827 29.1063 110.62 27.7823L109.432 26.1734ZM102.721 30.1726L94.0408 34.7326L94.971 36.5031L103.651 31.9431L102.721 30.1726ZM95.4857 35.4179L95.0857 33.4579L93.1261 33.8578L93.5261 35.8178L95.4857 35.4179ZM94.1059 34.6578H115.866V32.6578H94.1059V34.6578ZM114.866 33.6578V39.6578H116.866V33.6578H114.866ZM115.866 38.6578H86.5859V40.6578H115.866V38.6578ZM87.5859 39.6578V34.3778H85.5859V39.6578H87.5859ZM87.0841 35.2449L99.9641 27.8449L98.9677 26.1108L86.0877 33.5108L87.0841 35.2449ZM99.9621 27.8461C102.029 26.6652 103.663 25.6453 104.851 24.789L103.681 23.1667C102.576 23.9637 101.01 24.9438 98.9698 26.1096L99.9621 27.8461ZM104.854 24.7866C106.067 23.9042 107.003 23.0354 107.578 22.1725L105.914 21.0631C105.529 21.6402 104.811 22.3448 103.678 23.1691L104.854 24.7866ZM107.578 22.1725C108.162 21.2964 108.466 20.3315 108.466 19.2978H106.466C106.466 19.9175 106.29 20.4993 105.914 21.0631L107.578 22.1725ZM108.466 19.2978C108.466 18.2435 108.165 17.2773 107.557 16.4335L105.934 17.6021C106.287 18.0917 106.466 18.6455 106.466 19.2978H108.466ZM107.573 16.4555C106.983 15.5876 106.11 14.9583 105.037 14.5294L104.295 16.3863C105.089 16.704 105.603 17.1147 105.919 17.5801L107.573 16.4555ZM105.037 14.5294C103.948 14.0938 102.639 13.8978 101.146 13.8978V15.8978C102.48 15.8978 103.517 16.0752 104.295 16.3863L105.037 14.5294ZM101.146 13.8978C99.3743 13.8978 97.8318 14.1637 96.5655 14.7505L97.4064 16.5651C98.3267 16.1386 99.5575 15.8978 101.146 15.8978V13.8978ZM96.5839 14.7422C95.3498 15.284 94.3661 16.0519 93.7056 17.0757L95.3862 18.16C95.7924 17.5304 96.4354 16.9917 97.3879 16.5735L96.5839 14.7422ZM93.7056 17.0757C93.0871 18.0345 92.715 19.0902 92.5917 20.2304L94.5801 20.4453C94.6702 19.6121 94.9381 18.8545 95.3862 18.16L93.7056 17.0757ZM93.5859 19.3378H86.0659V21.3378H93.5859V19.3378ZM127.116 38.3378L126.649 39.2225L127.116 38.3378ZM121.356 32.8978L120.49 33.3993L120.493 33.4036L121.356 32.8978ZM121.356 16.4578L120.49 15.9564L121.356 16.4578ZM127.116 10.9778L127.582 11.8625V11.8625L127.116 10.9778ZM144.676 10.9778L144.209 11.8625V11.8625L144.676 10.9778ZM150.436 16.4578L149.57 16.9593L149.573 16.9636L150.436 16.4578ZM150.436 32.8578L151.301 33.3593L150.436 32.8578ZM144.676 38.3378L145.142 39.2225L144.676 38.3378ZM142.556 31.6578L141.837 30.9624L141.831 30.9685L142.556 31.6578ZM142.556 17.6578L141.831 18.3472L141.837 18.3533L142.556 17.6578ZM129.236 17.6578L129.954 18.3533L129.236 17.6578ZM129.236 31.6578L128.517 32.3533L129.236 31.6578ZM135.916 39.2978C132.658 39.2978 129.891 38.6699 127.582 37.4531L126.649 39.2225C129.3 40.6192 132.4 41.2978 135.916 41.2978V39.2978ZM127.582 37.4531C125.259 36.2295 123.48 34.5443 122.218 32.3921L120.493 33.4036C121.951 35.8914 124.012 37.8328 126.649 39.2225L127.582 37.4531ZM122.221 32.3964C120.962 30.225 120.316 27.6569 120.316 24.6578H118.316C118.316 27.9521 119.029 30.8773 120.49 33.3993L122.221 32.3964ZM120.316 24.6578C120.316 21.6871 120.962 19.1319 122.221 16.9593L120.49 15.9564C119.03 18.4771 118.316 21.3886 118.316 24.6578H120.316ZM122.221 16.9593C123.483 14.781 125.262 13.0846 127.582 11.8625L126.649 10.0931C124.009 11.4844 121.948 13.4413 120.49 15.9564L122.221 16.9593ZM127.582 11.8625C129.891 10.6458 132.658 10.0178 135.916 10.0178V8.01784C132.4 8.01784 129.3 8.69652 126.649 10.0931L127.582 11.8625ZM135.916 10.0178C139.145 10.0178 141.899 10.6453 144.209 11.8625L145.142 10.0931C142.492 8.69708 139.406 8.01784 135.916 8.01784V10.0178ZM144.209 11.8625C146.529 13.0846 148.308 14.781 149.57 16.9593L151.301 15.9564C149.843 13.4413 147.782 11.4844 145.142 10.0931L144.209 11.8625ZM149.573 16.9636C150.829 19.1058 151.476 21.6584 151.476 24.6578L153.476 24.6578C153.476 21.3639 152.762 18.4499 151.298 15.9521L149.573 16.9636ZM151.476 24.6578C151.476 27.6286 150.83 30.1838 149.57 32.3564L151.301 33.3593C152.762 30.8386 153.476 27.9271 153.476 24.6578L151.476 24.6578ZM149.57 32.3564C148.308 34.5347 146.529 36.231 144.209 37.4531L145.142 39.2225C147.782 37.8313 149.843 35.8743 151.301 33.3593L149.57 32.3564ZM144.209 37.4531C141.899 38.6704 139.145 39.2978 135.916 39.2978V41.2978C139.406 41.2978 142.492 40.6186 145.142 39.2225L144.209 37.4531ZM135.916 35.1378C138.97 35.1378 141.473 34.2462 143.28 32.3472L141.831 30.9685C140.492 32.3762 138.568 33.1378 135.916 33.1378V35.1378ZM143.274 32.3533C145.105 30.4612 145.956 27.8476 145.956 24.6578H143.956C143.956 27.4948 143.206 29.5478 141.837 30.9624L143.274 32.3533ZM145.956 24.6578C145.956 21.4681 145.105 18.8545 143.274 16.9624L141.837 18.3533C143.206 19.7678 143.956 21.8209 143.956 24.6578H145.956ZM143.28 16.9685C141.473 15.0695 138.97 14.1778 135.916 14.1778V16.1778C138.568 16.1778 140.492 16.9395 141.831 18.3472L143.28 16.9685ZM135.916 14.1778C132.861 14.1778 130.349 15.0697 128.517 16.9624L129.954 18.3533C131.323 16.9393 133.264 16.1778 135.916 16.1778V14.1778ZM128.517 16.9624C126.686 18.8545 125.836 21.4681 125.836 24.6578H127.836C127.836 21.8209 128.585 19.7678 129.954 18.3533L128.517 16.9624ZM125.836 24.6578C125.836 27.8476 126.686 30.4612 128.517 32.3533L129.954 30.9624C128.585 29.5478 127.836 27.4948 127.836 24.6578H125.836ZM128.517 32.3533C130.349 34.246 132.861 35.1378 135.916 35.1378V33.1378C133.264 33.1378 131.323 32.3764 129.954 30.9624L128.517 32.3533ZM155.675 20.3378L154.678 20.269L154.604 21.3378H155.675V20.3378ZM157.955 14.3378L158.733 14.9671L158.737 14.961L157.955 14.3378ZM163.355 10.4178L163.73 11.3448L163.736 11.3425L163.355 10.4178ZM178.155 10.2578L177.778 11.1838L178.155 10.2578ZM182.915 13.7378L182.122 14.3469V14.3469L182.915 13.7378ZM183.435 23.1378L184.283 23.6679L184.288 23.66L183.435 23.1378ZM179.635 26.9778L180.229 27.7823L179.635 26.9778ZM172.795 31.0578L172.341 30.1667L172.33 30.1726L172.795 31.0578ZM164.115 35.6178L163.135 35.8178L163.402 37.1223L164.58 36.5031L164.115 35.6178ZM163.715 33.6578V32.6578H162.491L162.735 33.8578L163.715 33.6578ZM185.475 33.6578H186.475V32.6578H185.475V33.6578ZM185.475 39.6578V40.6578H186.475V39.6578H185.475ZM156.195 39.6578H155.195V40.6578H156.195V39.6578ZM156.195 34.3778L155.697 33.5108L155.195 33.7991V34.3778H156.195ZM169.075 26.9778L168.579 26.1096L168.577 26.1108L169.075 26.9778ZM173.875 23.9778L174.46 24.789L174.463 24.7866L173.875 23.9778ZM176.355 21.6178L175.523 21.0631L176.355 21.6178ZM176.355 17.0178L175.528 17.5801L175.536 17.5912L175.544 17.6021L176.355 17.0178ZM174.275 15.4578L174.647 14.5294L174.275 15.4578ZM166.595 15.6578L166.997 16.5735L167.007 16.5694L167.016 16.5651L166.595 15.6578ZM164.155 17.6178L164.996 18.16L164.155 17.6178ZM163.195 20.3378V21.3378H164.093L164.189 20.4453L163.195 20.3378ZM156.673 20.4066C156.82 18.2752 157.512 16.475 158.733 14.967L157.178 13.7086C155.679 15.5607 154.851 17.7604 154.678 20.269L156.673 20.4066ZM158.737 14.961C159.979 13.403 161.632 12.194 163.73 11.3448L162.98 9.49089C160.598 10.455 158.652 11.8594 157.173 13.7146L158.737 14.961ZM163.736 11.3425C165.864 10.4664 168.291 10.0178 171.035 10.0178V8.01784C168.072 8.01784 165.38 8.50263 162.975 9.49316L163.736 11.3425ZM171.035 10.0178C173.656 10.0178 175.896 10.4163 177.778 11.1838L178.533 9.3319C176.361 8.44602 173.854 8.01784 171.035 8.01784V10.0178ZM177.778 11.1838C179.667 11.9545 181.1 13.0156 182.122 14.3469L183.708 13.1288C182.437 11.4734 180.697 10.2145 178.533 9.3319L177.778 11.1838ZM182.122 14.3469C183.13 15.6592 183.635 17.1634 183.635 18.8978H185.635C185.635 16.739 184.994 14.8031 183.708 13.1288L182.122 14.3469ZM183.635 18.8978C183.635 20.232 183.287 21.4649 182.582 22.6157L184.288 23.66C185.184 22.1975 185.635 20.6037 185.635 18.8978H183.635ZM182.587 22.6078C181.876 23.746 180.713 24.9387 179.041 26.1734L180.229 27.7823C182.024 26.457 183.395 25.0896 184.283 23.6678L182.587 22.6078ZM179.041 26.1734C177.368 27.4094 175.14 28.7413 172.341 30.1668L173.249 31.9489C176.104 30.4944 178.436 29.1063 180.229 27.7823L179.041 26.1734ZM172.33 30.1726L163.65 34.7326L164.58 36.5031L173.26 31.9431L172.33 30.1726ZM165.095 35.4179L164.695 33.4579L162.735 33.8578L163.135 35.8178L165.095 35.4179ZM163.715 34.6578H185.475V32.6578H163.715V34.6578ZM184.475 33.6578V39.6578H186.475V33.6578H184.475ZM185.475 38.6578H156.195V40.6578H185.475V38.6578ZM157.195 39.6578V34.3778H155.195V39.6578H157.195ZM156.693 35.2449L169.573 27.8449L168.577 26.1108L155.697 33.5108L156.693 35.2449ZM169.571 27.8461C171.638 26.6652 173.272 25.6453 174.46 24.789L173.29 23.1667C172.185 23.9637 170.619 24.9438 168.579 26.1096L169.571 27.8461ZM174.463 24.7866C175.677 23.9042 176.612 23.0354 177.187 22.1725L175.523 21.0631C175.139 21.6402 174.421 22.3448 173.287 23.1691L174.463 24.7866ZM177.187 22.1725C177.771 21.2964 178.075 20.3315 178.075 19.2978H176.075C176.075 19.9175 175.899 20.4993 175.523 21.0631L177.187 22.1725ZM178.075 19.2978C178.075 18.2435 177.774 17.2773 177.167 16.4335L175.544 17.6021C175.896 18.0917 176.075 18.6455 176.075 19.2978H178.075ZM177.182 16.4555C176.592 15.5876 175.719 14.9583 174.647 14.5294L173.904 16.3863C174.698 16.704 175.212 17.1147 175.528 17.5801L177.182 16.4555ZM174.647 14.5294C173.558 14.0938 172.248 13.8978 170.755 13.8978V15.8978C172.089 15.8978 173.126 16.0752 173.904 16.3863L174.647 14.5294ZM170.755 13.8978C168.984 13.8978 167.441 14.1637 166.175 14.7505L167.016 16.5651C167.936 16.1386 169.167 15.8978 170.755 15.8978V13.8978ZM166.193 14.7422C164.959 15.284 163.975 16.0519 163.315 17.0757L164.996 18.16C165.402 17.5304 166.045 16.9917 166.997 16.5735L166.193 14.7422ZM163.315 17.0757C162.696 18.0345 162.324 19.0902 162.201 20.2304L164.189 20.4453C164.28 19.6121 164.547 18.8545 164.996 18.16L163.315 17.0757ZM163.195 19.3378H155.675V21.3378H163.195V19.3378ZM189.165 19.2578L188.167 19.1876L188.092 20.2578H189.165V19.2578ZM191.165 14.0978L190.375 13.4848L191.165 14.0978ZM196.285 10.4178L196.664 11.3432L196.67 11.3409L196.285 10.4178ZM211.485 10.0978L211.146 11.0387L211.154 11.0414L211.161 11.044L211.485 10.0978ZM216.205 13.0178L215.459 13.6842L215.466 13.6921L216.205 13.0178ZM216.645 21.0978L215.84 20.504L215.838 20.5073L216.645 21.0978ZM212.845 23.7378L213.191 24.676L213.204 24.6712L212.845 23.7378ZM206.205 24.6578H205.205V25.648L206.195 25.6578L206.205 24.6578ZM206.205 23.8578L206.153 22.8592L205.205 22.9086V23.8578H206.205ZM216.805 35.7778L217.576 36.4151L217.582 36.4079L216.805 35.7778ZM211.765 39.0978L212.109 40.037L212.115 40.0346L211.765 39.0978ZM195.725 39.0178L195.363 39.9501L195.376 39.9551L195.725 39.0178ZM190.405 35.3778L189.623 36.0009L189.629 36.0082L189.635 36.0154L190.405 35.3778ZM188.365 29.8578V28.8578H187.313L187.366 29.9084L188.365 29.8578ZM195.885 29.8578L196.875 29.7139L196.75 28.8578H195.885V29.8578ZM198.125 33.2578L197.595 34.1058L197.605 34.1122L197.616 34.1184L198.125 33.2578ZM209.045 33.3778L209.545 34.2437L209.551 34.2403L209.045 33.3778ZM210.285 28.5378L209.5 29.1575L209.508 29.1679L209.517 29.178L210.285 28.5378ZM208.245 27.3778L207.977 28.3414L208.245 27.3778ZM199.045 26.9778H198.045V27.9778H199.045V26.9778ZM199.045 21.8178V20.8178H198.045V21.8178H199.045ZM208.925 20.8978L209.485 21.7261L209.494 21.7205L209.502 21.7148L208.925 20.8978ZM208.685 15.8178L208.177 16.6793L208.187 16.6847L208.685 15.8178ZM198.845 16.0178L198.325 15.1636L198.317 15.1688L198.845 16.0178ZM196.685 19.2578V20.2578H197.529L197.671 19.4252L196.685 19.2578ZM190.163 19.3281C190.281 17.6387 190.872 16.1063 191.955 14.7108L190.375 13.4848C189.058 15.1827 188.315 17.0903 188.167 19.1876L190.163 19.3281ZM191.955 14.7108C193.026 13.3301 194.577 12.1982 196.664 11.3432L195.906 9.49247C193.566 10.4508 191.704 11.7722 190.375 13.4848L191.955 14.7108ZM196.67 11.3409C198.757 10.471 201.313 10.0178 204.365 10.0178V8.01784C201.124 8.01784 198.293 8.49801 195.9 9.49476L196.67 11.3409ZM204.365 10.0178C207.028 10.0178 209.281 10.3674 211.146 11.0387L211.824 9.15695C209.689 8.38829 207.195 8.01784 204.365 8.01784V10.0178ZM211.161 11.044C213.069 11.6967 214.481 12.5892 215.459 13.6842L216.951 12.3515C215.689 10.9398 213.954 9.88562 211.809 9.15167L211.161 11.044ZM215.466 13.6921C216.416 14.7322 216.885 15.9442 216.885 17.3778H218.885C218.885 15.4515 218.234 13.7568 216.943 12.3436L215.466 13.6921ZM216.885 17.3778C216.885 18.5187 216.543 19.5516 215.84 20.504L217.45 21.6917C218.4 20.4041 218.885 18.9569 218.885 17.3778H216.885ZM215.838 20.5073C215.186 21.3983 214.104 22.182 212.486 22.8045L213.204 24.6712C215.052 23.9603 216.504 22.9841 217.452 21.6883L215.838 20.5073ZM212.499 22.7997C210.919 23.3831 208.837 23.6839 206.215 23.6579L206.195 25.6578C208.959 25.6852 211.305 25.3726 213.191 24.6759L212.499 22.7997ZM207.205 24.6578V23.8578H205.205V24.6578H207.205ZM206.257 24.8565C208.744 24.7269 210.831 24.9116 212.539 25.382L213.07 23.4537C211.099 22.9107 208.786 22.7221 206.153 22.8592L206.257 24.8565ZM212.539 25.382C214.249 25.8528 215.476 26.5722 216.303 27.4878L217.787 26.1479C216.64 24.8768 215.041 23.9962 213.07 23.4537L212.539 25.382ZM216.303 27.4878C217.103 28.3745 217.525 29.4994 217.525 30.9378H219.525C219.525 29.0696 218.96 27.4478 217.787 26.1479L216.303 27.4878ZM217.525 30.9378C217.525 32.5208 217.031 33.9119 216.028 35.1478L217.582 36.4079C218.872 34.8171 219.525 32.9815 219.525 30.9378H217.525ZM216.034 35.1406C215.029 36.3564 213.514 37.377 211.415 38.161L212.115 40.0346C214.442 39.1653 216.288 37.9726 217.576 36.4151L216.034 35.1406ZM211.421 38.1587C209.376 38.907 206.833 39.2978 203.765 39.2978V41.2978C206.99 41.2978 209.781 40.8886 212.109 40.037L211.421 38.1587ZM203.765 39.2978C200.788 39.2978 198.231 38.8834 196.074 38.0806L195.376 39.9551C197.805 40.8589 200.608 41.2978 203.765 41.2978V39.2978ZM196.087 38.0856C193.946 37.2544 192.326 36.1304 191.175 34.7403L189.635 36.0154C191.044 37.7186 192.971 39.0213 195.363 39.95L196.087 38.0856ZM191.187 34.7548C190.071 33.3532 189.46 31.716 189.364 29.8073L187.366 29.9084C187.483 32.213 188.233 34.2558 189.623 36.0009L191.187 34.7548ZM188.365 30.8578H195.885V28.8578H188.365V30.8578ZM194.895 30.0018C195.152 31.7654 196.071 33.1534 197.595 34.1058L198.655 32.4098C197.619 31.7623 197.045 30.8836 196.875 29.7139L194.895 30.0018ZM197.616 34.1184C199.144 35.023 201.232 35.4178 203.765 35.4178V33.4178C201.391 33.4178 199.719 33.0394 198.634 32.3973L197.616 34.1184ZM203.765 35.4178C206.156 35.4178 208.123 35.0656 209.545 34.2437L208.545 32.512C207.567 33.0767 206.014 33.4178 203.765 33.4178V35.4178ZM209.551 34.2403C211.043 33.3648 211.885 32.0576 211.885 30.3778H209.885C209.885 31.258 209.501 31.9509 208.539 32.5154L209.551 34.2403ZM211.885 30.3778C211.885 29.4448 211.631 28.5908 211.053 27.8976L209.517 29.178C209.739 29.4448 209.885 29.8175 209.885 30.3778H211.885ZM211.07 27.9182C210.484 27.1764 209.573 26.7089 208.513 26.4143L207.977 28.3414C208.837 28.5801 209.286 28.8859 209.5 29.1575L211.07 27.9182ZM208.513 26.4143C207.425 26.1122 205.988 25.9778 204.245 25.9778V27.9778C205.916 27.9778 207.145 28.1101 207.977 28.3414L208.513 26.4143ZM204.245 25.9778H199.045V27.9778H204.245V25.9778ZM200.045 26.9778V21.8178H198.045V26.9778H200.045ZM199.045 22.8178H204.245V20.8178H199.045V22.8178ZM204.245 22.8178C206.49 22.8178 208.314 22.5183 209.485 21.7261L208.365 20.0696C207.722 20.504 206.427 20.8178 204.245 20.8178V22.8178ZM209.502 21.7148C210.644 20.9083 211.285 19.7906 211.285 18.4178H209.285C209.285 19.0717 209.019 19.6074 208.348 20.0809L209.502 21.7148ZM211.285 18.4178C211.285 16.8991 210.523 15.7213 209.183 14.9509L208.187 16.6847C208.98 17.141 209.285 17.6966 209.285 18.4178H211.285ZM209.193 14.9565C207.923 14.2075 206.134 13.8978 203.965 13.8978V15.8978C206.009 15.8978 207.367 16.2015 208.177 16.6792L209.193 14.9565ZM203.965 13.8978C201.684 13.8978 199.77 14.2842 198.325 15.1636L199.365 16.872C200.373 16.2582 201.873 15.8978 203.965 15.8978V13.8978ZM198.317 15.1688C196.87 16.0691 195.986 17.3995 195.699 19.0904L197.671 19.4252C197.864 18.2895 198.42 17.4599 199.373 16.8669L198.317 15.1688ZM196.685 18.2578H189.165V20.2578H196.685V18.2578Z" fill="#8F8FFF" mask="url(#path-2-outside-1_2202_125)"/>
<mask id="path-4-outside-2_2202_125" maskUnits="userSpaceOnUse" x="244.626" y="7.65784" width="364" height="34" fill="black">
<rect fill="white" x="244.626" y="7.65784" width="364" height="34"/>
<path d="M267.346 24.9378L267.986 23.4578C270.333 23.5112 272.253 23.8712 273.746 24.5378C275.266 25.2045 276.386 26.1245 277.106 27.2978C277.853 28.4445 278.226 29.7778 278.226 31.2978C278.226 32.8978 277.853 34.3378 277.106 35.6178C276.359 36.8712 275.239 37.8578 273.746 38.5778C272.279 39.2978 270.439 39.6578 268.226 39.6578H246.626L248.946 24.2578L246.626 9.65783H267.466C270.239 9.65783 272.386 10.3112 273.906 11.6178C275.453 12.8978 276.226 14.6712 276.226 16.9378C276.226 18.1912 275.933 19.3912 275.346 20.5378C274.759 21.6845 273.826 22.6578 272.546 23.4578C271.266 24.2312 269.533 24.7245 267.346 24.9378ZM254.066 37.8178L251.186 34.2578H266.426C267.733 34.2578 268.746 33.9512 269.466 33.3378C270.213 32.6978 270.586 31.8045 270.586 30.6578C270.586 29.5112 270.173 28.6045 269.346 27.9378C268.546 27.2445 267.346 26.8978 265.746 26.8978H253.266V21.6178H264.786C265.879 21.6178 266.786 21.3112 267.506 20.6978C268.226 20.0578 268.586 19.1912 268.586 18.0978C268.586 17.2178 268.279 16.4978 267.666 15.9378C267.053 15.3512 266.159 15.0578 264.986 15.0578H251.226L254.066 11.4978L256.186 24.2578L254.066 37.8178ZM290.067 9.65783V36.2978L286.667 32.9778H309.147V39.6578H282.507V9.65783H290.067ZM318.18 33.6178V27.5378H338.9V33.6178H318.18ZM333.62 9.65783L347.46 39.6578H339.42L327.54 12.8178H329.86L318.02 39.6578H309.98L323.82 9.65783H333.62ZM381.677 27.2578C381.384 29.8445 380.49 32.1245 378.997 34.0978C377.504 36.0445 375.53 37.5645 373.077 38.6578C370.624 39.7512 367.824 40.2978 364.677 40.2978C361.237 40.2978 358.21 39.6445 355.597 38.3378C353.01 37.0312 350.997 35.2045 349.557 32.8578C348.117 30.5112 347.397 27.7778 347.397 24.6578C347.397 21.5378 348.117 18.8045 349.557 16.4578C350.997 14.1112 353.01 12.2845 355.597 10.9778C358.21 9.67117 361.237 9.01784 364.677 9.01784C367.824 9.01784 370.624 9.5645 373.077 10.6578C375.53 11.7512 377.504 13.2712 378.997 15.2178C380.49 17.1645 381.384 19.4445 381.677 22.0578H374.077C373.81 20.6978 373.264 19.5378 372.437 18.5778C371.637 17.6178 370.57 16.8845 369.237 16.3778C367.93 15.8445 366.41 15.5778 364.677 15.5778C362.677 15.5778 360.957 15.9512 359.517 16.6978C358.077 17.4178 356.97 18.4578 356.197 19.8178C355.424 21.1778 355.037 22.7912 355.037 24.6578C355.037 26.5245 355.424 28.1378 356.197 29.4978C356.97 30.8578 358.077 31.9112 359.517 32.6578C360.957 33.3778 362.677 33.7378 364.677 33.7378C366.41 33.7378 367.93 33.4845 369.237 32.9778C370.57 32.4712 371.637 31.7378 372.437 30.7778C373.264 29.8178 373.81 28.6445 374.077 27.2578H381.677ZM385.905 39.6578V9.65783H393.425V33.6178L391.385 32.0578L409.145 9.65783L417.145 9.65783L392.705 39.6578H385.905ZM400.265 25.1378L405.705 20.4578L417.545 39.6578H408.985L400.265 25.1378ZM433.374 22.1378L455.094 22.1378V28.5778L433.374 28.5778V22.1378ZM455.814 9.65783V16.0978H433.534L437.254 12.3778V39.6578H429.694V9.65783H455.814ZM465.442 22.8578H476.682C478.096 22.8578 479.216 22.5378 480.042 21.8978C480.869 21.2312 481.282 20.3112 481.282 19.1378C481.282 17.9645 480.869 17.0578 480.042 16.4178C479.216 15.7512 478.096 15.4178 476.682 15.4178H464.362L467.762 11.6978V39.6578H460.202V9.65783H477.682C479.922 9.65783 481.882 10.0578 483.562 10.8578C485.242 11.6578 486.549 12.7645 487.482 14.1778C488.416 15.5912 488.882 17.2445 488.882 19.1378C488.882 21.0045 488.416 22.6445 487.482 24.0578C486.549 25.4712 485.242 26.5778 483.562 27.3778C481.882 28.1512 479.922 28.5378 477.682 28.5378H465.442V22.8578ZM470.282 25.6178H478.802L489.842 39.6578H481.082L470.282 25.6178ZM493.796 9.65783H501.356V39.6578H493.796V9.65783ZM521.834 9.65783C525.354 9.65783 528.434 10.2845 531.074 11.5378C533.714 12.7912 535.768 14.5378 537.234 16.7778C538.728 19.0178 539.474 21.6445 539.474 24.6578C539.474 27.6445 538.728 30.2712 537.234 32.5378C535.768 34.7778 533.714 36.5245 531.074 37.7778C528.434 39.0312 525.354 39.6578 521.834 39.6578H507.194V9.65783H521.834ZM514.714 36.5778L511.034 32.9778H522.394C524.314 32.9778 525.981 32.6312 527.394 31.9378C528.808 31.2445 529.901 30.2845 530.674 29.0578C531.448 27.8045 531.834 26.3378 531.834 24.6578C531.834 22.9512 531.448 21.4845 530.674 20.2578C529.901 19.0312 528.808 18.0712 527.394 17.3778C525.981 16.6845 524.314 16.3378 522.394 16.3378H511.034L514.714 12.7378V36.5778ZM547.477 33.6178V27.5378H568.197V33.6178H547.477ZM562.917 9.65783L576.757 39.6578H568.717L556.837 12.8178H559.157L547.317 39.6578H539.277L553.117 9.65783L562.917 9.65783ZM585.003 39.6578V25.1378L592.563 25.1378V39.6578H585.003ZM570.923 9.65783H579.283L590.483 23.8978L587.003 23.8978L598.203 9.65783H606.563L591.203 29.1778L586.323 29.2578L570.923 9.65783Z"/>
</mask>
<path d="M267.346 24.9378L266.428 24.5409L265.755 26.0978L267.443 25.9331L267.346 24.9378ZM267.986 23.4578L268.009 22.4581L267.335 22.4428L267.068 23.0609L267.986 23.4578ZM273.746 24.5378L273.338 25.451L273.344 25.4536L273.746 24.5378ZM277.106 27.2978L276.254 27.8209L276.261 27.8323L276.268 27.8435L277.106 27.2978ZM277.106 35.6178L277.965 36.1297L277.97 36.1217L277.106 35.6178ZM273.746 38.5778L273.312 37.677L273.305 37.6802L273.746 38.5778ZM246.626 39.6578L245.637 39.5089L245.464 40.6578H246.626V39.6578ZM248.946 24.2578L249.935 24.4068L249.958 24.2538L249.934 24.1009L248.946 24.2578ZM246.626 9.65784V8.65783H245.454L245.638 9.81477L246.626 9.65784ZM273.906 11.6178L273.254 12.3762L273.261 12.3823L273.268 12.3882L273.906 11.6178ZM275.346 20.5378L274.456 20.0824L275.346 20.5378ZM272.546 23.4578L273.063 24.3138L273.07 24.3098L273.076 24.3058L272.546 23.4578ZM254.066 37.8178L253.288 38.4468L254.706 40.1988L255.054 37.9723L254.066 37.8178ZM251.186 34.2578V33.2578H249.091L250.408 34.8868L251.186 34.2578ZM269.466 33.3378L270.114 34.0991L270.117 34.0971L269.466 33.3378ZM269.346 27.9378L268.691 28.6935L268.704 28.7051L268.718 28.7162L269.346 27.9378ZM253.266 26.8978H252.266V27.8978H253.266V26.8978ZM253.266 21.6178V20.6178H252.266V21.6178H253.266ZM267.506 20.6978L268.154 21.4591L268.162 21.4522L268.17 21.4452L267.506 20.6978ZM267.666 15.9378L266.975 16.6605L266.983 16.6685L266.992 16.6763L267.666 15.9378ZM251.226 15.0578L250.444 14.4342L249.149 16.0578H251.226V15.0578ZM254.066 11.4978L255.052 11.3339L254.684 9.11902L253.284 10.8742L254.066 11.4978ZM256.186 24.2578L257.174 24.4123L257.199 24.253L257.172 24.0939L256.186 24.2578ZM268.264 25.3347L268.904 23.8547L267.068 23.0609L266.428 24.5409L268.264 25.3347ZM267.963 24.4576C270.23 24.5091 272.007 24.8566 273.338 25.451L274.154 23.6247C272.498 22.8857 270.435 22.5132 268.009 22.4581L267.963 24.4576ZM273.344 25.4536C274.717 26.0555 275.661 26.8545 276.254 27.8209L277.958 26.7748C277.111 25.3945 275.815 24.3535 274.148 23.622L273.344 25.4536ZM276.268 27.8435C276.897 28.8101 277.226 29.9493 277.226 31.2978H279.226C279.226 29.6063 278.808 28.0789 277.944 26.7522L276.268 27.8435ZM277.226 31.2978C277.226 32.7354 276.893 33.999 276.242 35.114L277.97 36.1217C278.813 34.6766 279.226 33.0603 279.226 31.2978H277.226ZM276.247 35.106C275.614 36.1686 274.653 37.0303 273.312 37.6771L274.18 39.4786C275.825 38.6854 277.105 37.5737 277.965 36.1296L276.247 35.106ZM273.305 37.6802C272.015 38.3133 270.338 38.6578 268.226 38.6578V40.6578C270.541 40.6578 272.543 40.2823 274.187 39.4755L273.305 37.6802ZM268.226 38.6578H246.626V40.6578H268.226V38.6578ZM247.615 39.8068L249.935 24.4068L247.957 24.1089L245.637 39.5089L247.615 39.8068ZM249.934 24.1009L247.614 9.5009L245.638 9.81477L247.958 24.4148L249.934 24.1009ZM246.626 10.6578H267.466V8.65783H246.626V10.6578ZM267.466 10.6578C270.092 10.6578 271.974 11.2762 273.254 12.3762L274.558 10.8595C272.797 9.34614 270.387 8.65783 267.466 8.65783V10.6578ZM273.268 12.3882C274.554 13.4523 275.226 14.9259 275.226 16.9378H277.226C277.226 14.4165 276.351 12.3434 274.543 10.8474L273.268 12.3882ZM275.226 16.9378C275.226 18.0283 274.972 19.0726 274.456 20.0824L276.236 20.9933C276.893 19.7097 277.226 18.354 277.226 16.9378H275.226ZM274.456 20.0824C273.965 21.0422 273.169 21.889 272.016 22.6098L273.076 24.3058C274.483 23.4266 275.554 22.3269 276.236 20.9933L274.456 20.0824ZM272.029 22.6019C270.922 23.2705 269.351 23.7375 267.249 23.9426L267.443 25.9331C269.714 25.7115 271.61 25.1919 273.063 24.3138L272.029 22.6019ZM254.843 37.1889L251.963 33.6289L250.408 34.8868L253.288 38.4468L254.843 37.1889ZM251.186 35.2578H266.426V33.2578H251.186V35.2578ZM266.426 35.2578C267.88 35.2578 269.155 34.9164 270.114 34.0991L268.817 32.5766C268.337 32.9859 267.585 33.2578 266.426 33.2578V35.2578ZM270.117 34.0971C271.123 33.2348 271.586 32.0427 271.586 30.6578H269.586C269.586 31.5663 269.302 32.1609 268.815 32.5786L270.117 34.0971ZM271.586 30.6578C271.586 29.2364 271.056 28.0326 269.974 27.1594L268.718 28.7162C269.289 29.1764 269.586 29.786 269.586 30.6578H271.586ZM270.001 27.1821C268.946 26.2678 267.468 25.8978 265.746 25.8978V27.8978C267.224 27.8978 268.146 28.2212 268.691 28.6935L270.001 27.1821ZM265.746 25.8978H253.266V27.8978H265.746V25.8978ZM254.266 26.8978V21.6178H252.266V26.8978H254.266ZM253.266 22.6178H264.786V20.6178H253.266V22.6178ZM264.786 22.6178C266.078 22.6178 267.226 22.2502 268.154 21.4591L266.857 19.9366C266.346 20.3722 265.681 20.6178 264.786 20.6178V22.6178ZM268.17 21.4452C269.134 20.5888 269.586 19.434 269.586 18.0978H267.586C267.586 18.9483 267.318 19.5269 266.842 19.9504L268.17 21.4452ZM269.586 18.0978C269.586 16.9557 269.175 15.9612 268.34 15.1993L266.992 16.6763C267.384 17.0345 267.586 17.48 267.586 18.0978H269.586ZM268.357 15.2152C267.496 14.3918 266.317 14.0578 264.986 14.0578V16.0578C266.001 16.0578 266.609 16.3105 266.975 16.6605L268.357 15.2152ZM264.986 14.0578H251.226V16.0578H264.986V14.0578ZM252.008 15.6815L254.848 12.1215L253.284 10.8742L250.444 14.4342L252.008 15.6815ZM253.079 11.6617L255.199 24.4217L257.172 24.0939L255.052 11.3339L253.079 11.6617ZM255.198 24.1034L253.078 37.6634L255.054 37.9723L257.174 24.4123L255.198 24.1034ZM290.067 9.65784H291.067V8.65783H290.067V9.65784ZM290.067 36.2978L289.368 37.0133L291.067 38.672V36.2978H290.067ZM286.667 32.9778V31.9778H284.211L285.968 33.6933L286.667 32.9778ZM309.147 32.9778H310.147V31.9778H309.147V32.9778ZM309.147 39.6578V40.6578H310.147V39.6578H309.147ZM282.507 39.6578H281.507V40.6578H282.507V39.6578ZM282.507 9.65784V8.65783H281.507V9.65784H282.507ZM289.067 9.65784V36.2978H291.067V9.65784H289.067ZM290.765 35.5824L287.365 32.2624L285.968 33.6933L289.368 37.0133L290.765 35.5824ZM286.667 33.9778H309.147V31.9778H286.667V33.9778ZM308.147 32.9778V39.6578H310.147V32.9778H308.147ZM309.147 38.6578H282.507V40.6578H309.147V38.6578ZM283.507 39.6578V9.65784H281.507V39.6578H283.507ZM282.507 10.6578H290.067V8.65783H282.507V10.6578ZM318.18 33.6178H317.18V34.6178H318.18V33.6178ZM318.18 27.5378V26.5378H317.18V27.5378H318.18ZM338.9 27.5378H339.9V26.5378H338.9V27.5378ZM338.9 33.6178V34.6178H339.9V33.6178H338.9ZM333.62 9.65784L334.528 9.23893L334.26 8.65783H333.62V9.65784ZM347.46 39.6578V40.6578H349.023L348.368 39.2389L347.46 39.6578ZM339.42 39.6578L338.506 40.0626L338.769 40.6578H339.42V39.6578ZM327.54 12.8178V11.8178H326.004L326.626 13.2226L327.54 12.8178ZM329.86 12.8178L330.775 13.2214L331.394 11.8178H329.86V12.8178ZM318.02 39.6578V40.6578H318.672L318.935 40.0614L318.02 39.6578ZM309.98 39.6578L309.072 39.2389L308.418 40.6578H309.98V39.6578ZM323.82 9.65784V8.65783H323.18L322.912 9.23893L323.82 9.65784ZM319.18 33.6178V27.5378H317.18V33.6178H319.18ZM318.18 28.5378H338.9V26.5378H318.18V28.5378ZM337.9 27.5378V33.6178H339.9V27.5378H337.9ZM338.9 32.6178H318.18V34.6178H338.9V32.6178ZM332.712 10.0767L346.552 40.0767L348.368 39.2389L334.528 9.23893L332.712 10.0767ZM347.46 38.6578H339.42V40.6578H347.46V38.6578ZM340.335 39.2531L328.455 12.4131L326.626 13.2226L338.506 40.0626L340.335 39.2531ZM327.54 13.8178H329.86V11.8178H327.54V13.8178ZM328.945 12.4142L317.105 39.2542L318.935 40.0614L330.775 13.2214L328.945 12.4142ZM318.02 38.6578H309.98V40.6578H318.02V38.6578ZM310.888 40.0767L324.728 10.0767L322.912 9.23893L309.072 39.2389L310.888 40.0767ZM323.82 10.6578H333.62V8.65783L323.82 8.65783V10.6578ZM381.677 27.2578L382.67 27.3705L382.797 26.2578H381.677V27.2578ZM378.997 34.0978L379.79 34.7065L379.794 34.7013L378.997 34.0978ZM373.077 38.6578L372.67 37.7444L373.077 38.6578ZM355.597 38.3378L355.146 39.2304L355.15 39.2323L355.597 38.3378ZM349.557 32.8578L348.705 33.3809L349.557 32.8578ZM349.557 16.4578L348.705 15.9348L349.557 16.4578ZM355.597 10.9778L355.15 10.0834L355.146 10.0853L355.597 10.9778ZM378.997 15.2178L378.203 15.8265V15.8265L378.997 15.2178ZM381.677 22.0578V23.0578H382.795L382.671 21.9463L381.677 22.0578ZM374.077 22.0578L373.096 22.2502L373.254 23.0578H374.077V22.0578ZM372.437 18.5778L371.669 19.218L371.674 19.2242L371.679 19.2304L372.437 18.5778ZM369.237 16.3778L368.859 17.3037L368.87 17.3083L368.882 17.3126L369.237 16.3778ZM359.517 16.6978L359.964 17.5923L359.971 17.589L359.977 17.5856L359.517 16.6978ZM356.197 19.8178L357.066 20.3121L356.197 19.8178ZM356.197 29.4978L355.328 29.9921V29.9921L356.197 29.4978ZM359.517 32.6578L359.057 33.5456L359.063 33.549L359.07 33.5523L359.517 32.6578ZM369.237 32.9778L368.882 32.043L368.875 32.0455L369.237 32.9778ZM372.437 30.7778L371.679 30.1253L371.674 30.1314L371.669 30.1377L372.437 30.7778ZM374.077 27.2578V26.2578H373.251L373.095 27.069L374.077 27.2578ZM380.683 27.1452C380.409 29.5632 379.579 31.6716 378.199 33.4944L379.794 34.7013C381.402 32.5774 382.358 30.1258 382.67 27.3705L380.683 27.1452ZM378.203 33.4892C376.821 35.2914 374.986 36.7123 372.67 37.7444L373.484 39.5712C376.075 38.4167 378.186 36.7976 379.79 34.7065L378.203 33.4892ZM372.67 37.7444C370.365 38.7717 367.707 39.2978 364.677 39.2978V41.2978C367.94 41.2978 370.882 40.7306 373.484 39.5712L372.67 37.7444ZM364.677 39.2978C361.365 39.2978 358.496 38.6693 356.044 37.4434L355.15 39.2323C357.924 40.6197 361.109 41.2978 364.677 41.2978V39.2978ZM356.048 37.4453C353.617 36.2176 351.747 34.515 350.409 32.3348L348.705 33.3809C350.247 35.894 352.403 37.8447 355.146 39.2304L356.048 37.4453ZM350.409 32.3348C349.078 30.1657 348.397 27.6184 348.397 24.6578H346.397C346.397 27.9373 347.156 30.8567 348.705 33.3809L350.409 32.3348ZM348.397 24.6578C348.397 21.6973 349.078 19.15 350.409 16.9809L348.705 15.9348C347.156 18.459 346.397 21.3784 346.397 24.6578H348.397ZM350.409 16.9809C351.747 14.8007 353.617 13.0981 356.048 11.8704L355.146 10.0853C352.403 11.4709 350.247 13.4217 348.705 15.9348L350.409 16.9809ZM356.044 11.8723C358.496 10.6463 361.365 10.0178 364.677 10.0178V8.01784C361.109 8.01784 357.924 8.69602 355.15 10.0834L356.044 11.8723ZM364.677 10.0178C367.707 10.0178 370.365 10.544 372.67 11.5712L373.484 9.74443C370.882 8.58505 367.94 8.01784 364.677 8.01784V10.0178ZM372.67 11.5712C374.986 12.6033 376.821 14.0243 378.203 15.8265L379.79 14.6092C378.186 12.5181 376.075 10.899 373.484 9.74443L372.67 11.5712ZM378.203 15.8265C379.578 17.6184 380.409 19.7234 380.683 22.1694L382.671 21.9463C382.358 19.1656 381.402 16.7106 379.79 14.6092L378.203 15.8265ZM381.677 21.0578H374.077V23.0578H381.677V21.0578ZM375.058 21.8654C374.761 20.3517 374.145 19.0288 373.195 17.9253L371.679 19.2304C372.382 20.0468 372.859 21.044 373.096 22.2502L375.058 21.8654ZM373.205 17.9377C372.28 16.8279 371.063 16.002 369.592 15.4431L368.882 17.3126C370.077 17.767 370.993 18.4078 371.669 19.218L373.205 17.9377ZM369.615 15.452C368.164 14.8599 366.511 14.5778 364.677 14.5778V16.5778C366.309 16.5778 367.696 16.8291 368.859 17.3037L369.615 15.452ZM364.677 14.5778C362.553 14.5778 360.668 14.9744 359.057 15.8101L359.977 17.5856C361.246 16.9279 362.8 16.5778 364.677 16.5778V14.5778ZM359.07 15.8034C357.458 16.6093 356.202 17.7861 355.328 19.3235L357.066 20.3121C357.739 19.1296 358.696 18.2264 359.964 17.5923L359.07 15.8034ZM355.328 19.3235C354.453 20.8609 354.037 22.6514 354.037 24.6578H356.037C356.037 22.931 356.394 21.4948 357.066 20.3121L355.328 19.3235ZM354.037 24.6578C354.037 26.6643 354.453 28.4548 355.328 29.9921L357.066 29.0035C356.394 27.8209 356.037 26.3847 356.037 24.6578H354.037ZM355.328 29.9921C356.2 31.5264 357.452 32.7135 359.057 33.5456L359.977 31.7701C358.702 31.1089 357.74 30.1892 357.066 29.0035L355.328 29.9921ZM359.07 33.5523C360.678 34.3565 362.558 34.7378 364.677 34.7378V32.7378C362.795 32.7378 361.236 32.3992 359.964 31.7634L359.07 33.5523ZM364.677 34.7378C366.506 34.7378 368.153 34.4708 369.598 33.9102L368.875 32.0455C367.708 32.4982 366.315 32.7378 364.677 32.7378V34.7378ZM369.592 33.9126C371.063 33.3536 372.28 32.5278 373.205 31.418L371.669 30.1377C370.993 30.9479 370.077 31.5887 368.882 32.0431L369.592 33.9126ZM373.195 31.4304C374.148 30.3233 374.763 28.9847 375.059 27.4467L373.095 27.069C372.857 28.3043 372.379 29.3123 371.679 30.1253L373.195 31.4304ZM374.077 28.2578H381.677V26.2578H374.077V28.2578ZM385.905 39.6578H384.905V40.6578H385.905V39.6578ZM385.905 9.65784V8.65783H384.905V9.65784H385.905ZM393.425 9.65784H394.425V8.65783H393.425V9.65784ZM393.425 33.6178L392.818 34.4122L394.425 35.6414V33.6178H393.425ZM391.385 32.0578L390.602 31.4366L389.969 32.234L390.778 32.8522L391.385 32.0578ZM409.145 9.65784V8.65783H408.662L408.362 9.03656L409.145 9.65784ZM417.145 9.65784L417.921 10.2894L419.25 8.65783H417.145V9.65784ZM392.705 39.6578V40.6578H393.18L393.481 40.2894L392.705 39.6578ZM400.265 25.1378L399.613 24.3798L398.974 24.9297L399.408 25.6527L400.265 25.1378ZM405.705 20.4578L406.556 19.9329L405.941 18.9356L405.053 19.6998L405.705 20.4578ZM417.545 39.6578V40.6578H419.337L418.396 39.1329L417.545 39.6578ZM408.985 39.6578L408.128 40.1727L408.419 40.6578H408.985V39.6578ZM386.905 39.6578V9.65784H384.905V39.6578H386.905ZM385.905 10.6578H393.425V8.65783H385.905V10.6578ZM392.425 9.65784V33.6178H394.425V9.65784H392.425ZM394.033 32.8235L391.993 31.2635L390.778 32.8522L392.818 34.4122L394.033 32.8235ZM392.169 32.6791L409.929 10.2791L408.362 9.03656L390.602 31.4366L392.169 32.6791ZM409.145 10.6578L417.145 10.6578V8.65783H409.145V10.6578ZM416.37 9.02623L391.93 39.0262L393.481 40.2894L417.921 10.2894L416.37 9.02623ZM392.705 38.6578H385.905V40.6578H392.705V38.6578ZM400.917 25.8959L406.357 21.2159L405.053 19.6998L399.613 24.3798L400.917 25.8959ZM404.854 20.9827L416.694 40.1827L418.396 39.1329L406.556 19.9329L404.854 20.9827ZM417.545 38.6578H408.985V40.6578H417.545V38.6578ZM409.843 39.143L401.123 24.623L399.408 25.6527L408.128 40.1727L409.843 39.143ZM433.374 22.1378V21.1378H432.374V22.1378H433.374ZM455.094 22.1378H456.094V21.1378H455.094V22.1378ZM455.094 28.5778V29.5778H456.094V28.5778H455.094ZM433.374 28.5778H432.374V29.5778H433.374V28.5778ZM455.814 9.65784H456.814V8.65783H455.814V9.65784ZM455.814 16.0978V17.0978H456.814V16.0978H455.814ZM433.534 16.0978L432.827 15.3907L431.12 17.0978H433.534V16.0978ZM437.254 12.3778H438.254V9.96362L436.547 11.6707L437.254 12.3778ZM437.254 39.6578V40.6578H438.254V39.6578H437.254ZM429.694 39.6578H428.694V40.6578H429.694V39.6578ZM429.694 9.65784V8.65783H428.694V9.65784H429.694ZM433.374 23.1378L455.094 23.1378V21.1378L433.374 21.1378V23.1378ZM454.094 22.1378V28.5778H456.094V22.1378H454.094ZM455.094 27.5778L433.374 27.5778V29.5778L455.094 29.5778V27.5778ZM434.374 28.5778V22.1378H432.374V28.5778H434.374ZM454.814 9.65784V16.0978H456.814V9.65784H454.814ZM455.814 15.0978H433.534V17.0978L455.814 17.0978V15.0978ZM434.241 16.8049L437.961 13.0849L436.547 11.6707L432.827 15.3907L434.241 16.8049ZM436.254 12.3778V39.6578H438.254V12.3778H436.254ZM437.254 38.6578H429.694V40.6578H437.254V38.6578ZM430.694 39.6578V9.65784H428.694V39.6578H430.694ZM429.694 10.6578H455.814V8.65783L429.694 8.65783V10.6578ZM465.442 22.8578V21.8578H464.442V22.8578H465.442ZM480.042 21.8978L480.654 22.6886L480.662 22.6825L480.67 22.6762L480.042 21.8978ZM480.042 16.4178L479.414 17.1962L479.422 17.2025L479.43 17.2086L480.042 16.4178ZM464.362 15.4178L463.624 14.7432L462.093 16.4178H464.362V15.4178ZM467.762 11.6978H468.762V9.12146L467.024 11.0232L467.762 11.6978ZM467.762 39.6578V40.6578H468.762V39.6578H467.762ZM460.202 39.6578H459.202V40.6578H460.202V39.6578ZM460.202 9.65784V8.65783H459.202V9.65784H460.202ZM483.562 10.8578L483.132 11.7607L483.562 10.8578ZM487.482 14.1778L488.317 13.6268L487.482 14.1778ZM487.482 24.0578L488.317 24.6089L487.482 24.0578ZM483.562 27.3778L483.98 28.2863L483.992 28.2807L483.562 27.3778ZM465.442 28.5378H464.442V29.5378H465.442V28.5378ZM470.282 25.6178V24.6178H468.251L469.49 26.2275L470.282 25.6178ZM478.802 25.6178L479.588 24.9997L479.288 24.6178H478.802V25.6178ZM489.842 39.6578V40.6578H491.901L490.628 39.0397L489.842 39.6578ZM481.082 39.6578L480.29 40.2675L480.59 40.6578H481.082V39.6578ZM465.442 23.8578H476.682V21.8578H465.442V23.8578ZM476.682 23.8578C478.24 23.8578 479.6 23.505 480.654 22.6886L479.43 21.1071C478.831 21.5707 477.951 21.8578 476.682 21.8578V23.8578ZM480.67 22.6762C481.759 21.7982 482.282 20.5775 482.282 19.1378H480.282C480.282 20.0448 479.979 20.6641 479.414 21.1194L480.67 22.6762ZM482.282 19.1378C482.282 17.6983 481.758 16.4815 480.654 15.6271L479.43 17.2086C479.98 17.6342 480.282 18.2307 480.282 19.1378H482.282ZM480.67 15.6394C479.614 14.7881 478.248 14.4178 476.682 14.4178V16.4178C477.943 16.4178 478.817 16.7142 479.414 17.1962L480.67 15.6394ZM476.682 14.4178H464.362V16.4178H476.682V14.4178ZM465.1 16.0925L468.5 12.3725L467.024 11.0232L463.624 14.7432L465.1 16.0925ZM466.762 11.6978V39.6578H468.762V11.6978H466.762ZM467.762 38.6578H460.202V40.6578H467.762V38.6578ZM461.202 39.6578V9.65784H459.202V39.6578H461.202ZM460.202 10.6578H477.682V8.65783L460.202 8.65783V10.6578ZM477.682 10.6578C479.803 10.6578 481.611 11.0364 483.132 11.7607L483.992 9.95498C482.153 9.07931 480.041 8.65783 477.682 8.65783V10.6578ZM483.132 11.7607C484.665 12.4904 485.824 13.4822 486.648 14.7289L488.317 13.6268C487.273 12.0468 485.82 10.8253 483.992 9.95498L483.132 11.7607ZM486.648 14.7289C487.461 15.9598 487.882 17.4165 487.882 19.1378H489.882C489.882 17.0725 489.37 15.2225 488.317 13.6268L486.648 14.7289ZM487.882 19.1378C487.882 20.8294 487.462 22.2735 486.648 23.5068L488.317 24.6089C489.369 23.0155 489.882 21.1796 489.882 19.1378H487.882ZM486.648 23.5068C485.824 24.7535 484.665 25.7453 483.132 26.475L483.992 28.2807C485.82 27.4104 487.273 26.1889 488.317 24.6089L486.648 23.5068ZM483.144 26.4695C481.62 27.1711 479.808 27.5378 477.682 27.5378V29.5378C480.037 29.5378 482.144 29.1313 483.98 28.2862L483.144 26.4695ZM477.682 27.5378H465.442V29.5378H477.682V27.5378ZM466.442 28.5378V22.8578H464.442V28.5378H466.442ZM470.282 26.6178H478.802V24.6178H470.282V26.6178ZM478.016 26.236L489.056 40.276L490.628 39.0397L479.588 24.9997L478.016 26.236ZM489.842 38.6578H481.082V40.6578H489.842V38.6578ZM481.875 39.0481L471.075 25.0081L469.49 26.2275L480.29 40.2675L481.875 39.0481ZM493.796 9.65784V8.65783H492.796V9.65784H493.796ZM501.356 9.65784H502.356V8.65783H501.356V9.65784ZM501.356 39.6578V40.6578H502.356V39.6578H501.356ZM493.796 39.6578H492.796V40.6578H493.796V39.6578ZM493.796 10.6578H501.356V8.65783H493.796V10.6578ZM500.356 9.65784V39.6578H502.356V9.65784H500.356ZM501.356 38.6578H493.796V40.6578H501.356V38.6578ZM494.796 39.6578V9.65784H492.796V39.6578H494.796ZM531.074 11.5378L530.645 12.4412L531.074 11.5378ZM537.234 16.7778L536.398 17.3256L536.402 17.3325L537.234 16.7778ZM537.234 32.5378L536.399 31.9877L536.398 31.9901L537.234 32.5378ZM531.074 37.7778L530.645 36.8745L531.074 37.7778ZM507.194 39.6578H506.194V40.6578H507.194V39.6578ZM507.194 9.65784V8.65783H506.194V9.65784H507.194ZM514.714 36.5778L514.015 37.2927L515.714 38.955V36.5778H514.714ZM511.034 32.9778V31.9778H508.582L510.335 33.6927L511.034 32.9778ZM527.394 31.9378L526.954 31.04L527.394 31.9378ZM530.674 29.0578L531.52 29.5912L531.525 29.5829L530.674 29.0578ZM530.674 20.2578L529.828 20.7911L530.674 20.2578ZM527.394 17.3778L527.835 16.48V16.48L527.394 17.3778ZM511.034 16.3378L510.335 15.623L508.582 17.3378H511.034V16.3378ZM514.714 12.7378H515.714V10.3606L514.015 12.023L514.714 12.7378ZM521.834 10.6578C525.236 10.6578 528.164 11.2632 530.645 12.4412L531.503 10.6345C528.705 9.30583 525.473 8.65783 521.834 8.65783V10.6578ZM530.645 12.4412C533.135 13.6232 535.041 15.2533 536.398 17.3256L538.071 16.2301C536.495 13.8224 534.294 11.9592 531.503 10.6345L530.645 12.4412ZM536.402 17.3325C537.773 19.3891 538.474 21.8175 538.474 24.6578H540.474C540.474 21.4715 539.682 18.6466 538.066 16.2231L536.402 17.3325ZM538.474 24.6578C538.474 27.4693 537.774 29.9006 536.399 31.9877L538.069 33.088C539.681 30.6418 540.474 27.8197 540.474 24.6578H538.474ZM536.398 31.9901C535.041 34.0624 533.135 35.6925 530.645 36.8745L531.503 38.6812C534.294 37.3565 536.495 35.4933 538.071 33.0856L536.398 31.9901ZM530.645 36.8745C528.164 38.0525 525.236 38.6578 521.834 38.6578V40.6578C525.473 40.6578 528.705 40.0098 531.503 38.6812L530.645 36.8745ZM521.834 38.6578H507.194V40.6578H521.834V38.6578ZM508.194 39.6578V9.65784H506.194V39.6578H508.194ZM507.194 10.6578H521.834V8.65783H507.194V10.6578ZM515.414 35.863L511.734 32.263L510.335 33.6927L514.015 37.2927L515.414 35.863ZM511.034 33.9778H522.394V31.9778H511.034V33.9778ZM522.394 33.9778C524.434 33.9778 526.258 33.6094 527.835 32.8356L526.954 31.04C525.704 31.653 524.195 31.9778 522.394 31.9778V33.9778ZM527.835 32.8356C529.4 32.0679 530.64 30.9879 531.52 29.5911L529.828 28.5245C529.162 29.5811 528.216 30.4211 526.954 31.04L527.835 32.8356ZM531.525 29.5829C532.409 28.1505 532.834 26.4966 532.834 24.6578H530.834C530.834 26.1791 530.486 27.4585 529.823 28.5327L531.525 29.5829ZM532.834 24.6578C532.834 22.7963 532.411 21.1373 531.52 19.7245L529.828 20.7911C530.484 21.8317 530.834 23.106 530.834 24.6578H532.834ZM531.52 19.7245C530.64 18.3278 529.4 17.2477 527.835 16.48L526.954 18.2756C528.216 18.8946 529.162 19.7345 529.828 20.7911L531.52 19.7245ZM527.835 16.48C526.258 15.7063 524.434 15.3378 522.394 15.3378V17.3378C524.195 17.3378 525.704 17.6627 526.954 18.2756L527.835 16.48ZM522.394 15.3378H511.034V17.3378H522.394V15.3378ZM511.734 17.0527L515.414 13.4527L514.015 12.023L510.335 15.623L511.734 17.0527ZM513.714 12.7378V36.5778H515.714V12.7378H513.714ZM547.477 33.6178H546.477V34.6178H547.477V33.6178ZM547.477 27.5378V26.5378H546.477V27.5378H547.477ZM568.197 27.5378H569.197V26.5378H568.197V27.5378ZM568.197 33.6178V34.6178H569.197V33.6178H568.197ZM562.917 9.65784L563.825 9.23893L563.557 8.65783H562.917V9.65784ZM576.757 39.6578V40.6578H578.32L577.665 39.2389L576.757 39.6578ZM568.717 39.6578L567.803 40.0626L568.066 40.6578H568.717V39.6578ZM556.837 12.8178V11.8178H555.301L555.923 13.2226L556.837 12.8178ZM559.157 12.8178L560.072 13.2214L560.691 11.8178H559.157V12.8178ZM547.317 39.6578V40.6578H547.969L548.232 40.0614L547.317 39.6578ZM539.277 39.6578L538.369 39.2389L537.715 40.6578H539.277V39.6578ZM553.117 9.65784V8.65783H552.477L552.209 9.23893L553.117 9.65784ZM548.477 33.6178V27.5378H546.477V33.6178H548.477ZM547.477 28.5378H568.197V26.5378H547.477V28.5378ZM567.197 27.5378V33.6178H569.197V27.5378H567.197ZM568.197 32.6178H547.477V34.6178H568.197V32.6178ZM562.009 10.0767L575.849 40.0767L577.665 39.2389L563.825 9.23893L562.009 10.0767ZM576.757 38.6578H568.717V40.6578H576.757V38.6578ZM569.632 39.2531L557.752 12.4131L555.923 13.2226L567.803 40.0626L569.632 39.2531ZM556.837 13.8178H559.157V11.8178H556.837V13.8178ZM558.242 12.4142L546.402 39.2542L548.232 40.0614L560.072 13.2214L558.242 12.4142ZM547.317 38.6578H539.277V40.6578H547.317V38.6578ZM540.185 40.0767L554.025 10.0767L552.209 9.23893L538.369 39.2389L540.185 40.0767ZM553.117 10.6578L562.917 10.6578V8.65783H553.117V10.6578ZM585.003 39.6578H584.003V40.6578H585.003V39.6578ZM585.003 25.1378V24.1378H584.003V25.1378H585.003ZM592.563 25.1378H593.563V24.1378H592.563V25.1378ZM592.563 39.6578V40.6578H593.563V39.6578H592.563ZM570.923 9.65784V8.65783H568.866L570.137 10.2757L570.923 9.65784ZM579.283 9.65784L580.069 9.03962L579.769 8.65783H579.283V9.65784ZM590.483 23.8978V24.8978H592.542L591.269 23.2796L590.483 23.8978ZM587.003 23.8978L586.217 23.2796L584.945 24.8978H587.003V23.8978ZM598.203 9.65784V8.65783H597.718L597.417 9.03962L598.203 9.65784ZM606.563 9.65784L607.349 10.2762L608.623 8.65783H606.563V9.65784ZM591.203 29.1778L591.22 30.1777L591.695 30.1699L591.989 29.7962L591.203 29.1778ZM586.323 29.2578L585.537 29.8757L585.844 30.2658L586.34 30.2577L586.323 29.2578ZM586.003 39.6578V25.1378H584.003V39.6578H586.003ZM585.003 26.1378L592.563 26.1378V24.1378L585.003 24.1378V26.1378ZM591.563 25.1378V39.6578H593.563V25.1378H591.563ZM592.563 38.6578H585.003V40.6578H592.563V38.6578ZM570.923 10.6578H579.283V8.65783L570.923 8.65783V10.6578ZM578.497 10.276L589.697 24.516L591.269 23.2796L580.069 9.03962L578.497 10.276ZM590.483 22.8978L587.003 22.8978V24.8978L590.483 24.8978V22.8978ZM587.789 24.516L598.989 10.276L597.417 9.03962L586.217 23.2796L587.789 24.516ZM598.203 10.6578H606.563V8.65783L598.203 8.65783V10.6578ZM605.778 9.03944L590.418 28.5594L591.989 29.7962L607.349 10.2762L605.778 9.03944ZM591.187 28.178L586.307 28.258L586.34 30.2577L591.22 30.1777L591.187 28.178ZM587.11 28.64L571.71 9.04001L570.137 10.2757L585.537 29.8757L587.11 28.64Z" fill="#8F8FFF" mask="url(#path-4-outside-2_2202_125)"/>
</svg>
